<svg xmlns="http://www.w3.org/2000/svg" width="3000" height="2000" viewBox="0 0 3000 2000">
<rect width="3000" height="2000" fill="#ffffff"/>
<path d="M 1202.35 1322.06 L 1202.35 1322.06 L 1188.76 1320.49 L 1188.76 1320.49 L 1286.58 1314.77 L 1286.58 1314.77 L 1310.21 1316.63 L 1310.21 1316.63 L 1323.74 1316.48 L 1323.74 1316.48 L 1349.14 1320.40 L 1349.14 1320.40 L 1370.15 1326.94 L 1370.15 1326.94 L 1382.63 1333.10 L 1382.63 1333.10 L 1405.53 1338.91 L 1405.53 1338.91 L 1421.73 1346.90 L 1421.73 1346.90 L 1432.59 1354.63 L 1432.59 1354.63 L 1448.51 1365.55 L 1448.51 1365.55 L 1452.95 1369.68 L 1452.95 1369.68 L 1458.99 1377.87 L 1458.99 1377.87 L 1490.60 1316.77 L 1490.60 1316.77 L 1494.54 1312.07 L 1494.54 1312.07 L 1497.59 1300.15 L 1497.59 1300.15 L 1496.92 1295.13 L 1496.92 1295.13 L 1492.32 1281.79 L 1492.32 1281.79 L 1485.33 1269.50 L 1485.33 1269.50 L 1480.90 1261.28 L 1480.90 1261.28 L 1477.46 1254.89 L 1477.46 1254.89 L 1471.97 1244.17 L 1471.97 1244.17 L 1470.08 1238.53 L 1470.08 1238.53 L 1467.53 1225.17 L 1467.53 1225.17 L 1468.42 1212.06 L 1468.42 1212.06 L 1469.25 1206.80 L 1469.25 1206.80 L 1463.48 1194.89 L 1463.48 1194.89 L 1464.65 1181.53 L 1464.65 1181.53 L 1468.09 1176.76 L 1468.09 1176.76 L 1479.51 1167.52 L 1479.51 1167.52 L 1491.15 1161.60 L 1491.15 1161.60 L 1456.11 1217.18 L 1456.11 1217.18 L 1443.08 1226.88 L 1443.08 1226.88 L 1430.15 1233.88 L 1430.15 1233.88 L 1418.90 1243.50 L 1418.90 1243.50 L 1410.52 1252.71 L 1410.52 1252.71 L 1403.92 1264.94 L 1403.92 1264.94 L 1402.04 1271.68 L 1402.04 1271.68 L 1406.53 1285.25 L 1406.53 1285.25 L 1413.80 1297.42 L 1413.80 1297.42 L 1413.13 1307.27 L 1413.13 1307.27 L 1411.58 1316.40 L 1411.58 1316.40 L 1308.38 1313.03 L 1308.38 1313.03 L 1287.19 1308.73 L 1287.19 1308.73 L 1264.46 1306.26 L 1264.46 1306.26 L 1248.76 1305.53 L 1248.76 1305.53 L 1227.14 1300.39 L 1227.14 1300.39 L 1218.82 1297.42 L 1218.82 1297.42 L 1204.01 1292.37 L 1204.01 1292.37 L 1195.91 1287.92 L 1195.91 1287.92 L 1181.66 1279.85 L 1181.66 1279.85 L 1158.76 1273.48 L 1158.76 1273.48 L 1150.61 1270.69 L 1150.61 1270.69 L 1137.35 1265.87 L 1137.35 1265.87 L 1117.95 1256.86 L 1117.95 1256.86 L 1099.92 1250.88 L 1099.92 1250.88 L 1090.83 1247.89 L 1090.83 1247.89 L 1075.13 1243.47 L 1075.13 1243.47 L 1065.15 1242.51 L 1065.15 1242.51 L 1052.45 1242.69 L 1052.45 1242.69 L 1033.60 1244.78 L 1033.60 1244.78 L 1015.80 1244.66 L 1015.80 1244.66 L 998.94 1246.43 L 998.94 1246.43 L 977.81 1244.92 L 977.81 1244.92 L 959.40 1240.83 L 959.40 1240.83 L 938.05 1236.03 L 938.05 1236.03 L 921.86 1233.71 L 921.86 1233.71 L 900.51 1231.62 L 900.51 1231.62 L 886.48 1228.91 L 886.48 1228.91 L 867.62 1222.32 L 867.62 1222.32 L 858.31 1218.28 L 858.31 1218.28 L 846.55 1212.44 L 846.55 1212.44 L 834.18 1202.97 L 834.18 1202.97 L 773.35 1221.53 L 773.35 1221.53 L 759.43 1225.66 L 759.43 1225.66 L 739.25 1232.02 L 739.25 1232.02 L 775.68 1189.95 L 775.68 1189.95 L 792.70 1179.52 L 792.70 1179.52 L 801.02 1174.56 L 801.02 1174.56 L 819.04 1169.27 L 819.04 1169.27 L 830.41 1165.78 L 830.41 1165.78 L 846.72 1155.90 L 846.72 1155.90 L 862.58 1151.14 L 862.58 1151.14 L 815.72 1113.25 L 815.72 1113.25 L 766.09 1160.06 L 766.09 1160.06 L 764.20 1165.69 L 764.20 1165.69 L 757.55 1176.24 L 757.55 1176.24 L 746.68 1184.06 L 746.68 1184.06 L 729.65 1193.41 L 729.65 1193.41 L 719.23 1198.41 L 719.23 1198.41 L 709.69 1203.23 L 709.69 1203.23 L 700.54 1209.56 L 700.54 1209.56 L 696.05 1217.15 L 696.05 1217.15 L 682.13 1227.78 L 682.13 1227.78 L 757.49 1219.38 L 757.49 1219.38 L 781.45 1217.53 L 781.45 1217.53 L 797.47 1213.31 L 797.47 1213.31 L 813.67 1210.61 L 813.67 1210.61 L 836.85 1210.96 L 836.85 1210.96 L 727.93 1187.40 L 727.93 1187.40 L 715.29 1186.67 L 715.29 1186.67 L 693.05 1188.12 L 693.05 1188.12 L 682.13 1187.31 L 682.13 1187.31 L 669.59 1187.37 L 669.59 1187.37 L 650.96 1185.89 L 650.96 1185.89 L 634.60 1186.35 L 634.60 1186.35 L 609.98 1187.48 L 609.98 1187.48 L 590.74 1186.44 L 590.74 1186.44 L 569.00 1188.50 L 569.00 1188.50 L 548.37 1187.69 L 548.37 1187.69 L 529.79 1190.27 L 529.79 1190.27 L 516.26 1190.94 L 516.26 1190.94 L 575.71 1233.13 L 575.71 1233.13 L 583.25 1241.35 L 583.25 1241.35 L 591.46 1254.13 L 591.46 1254.13 L 593.46 1262.68 L 593.46 1262.68 L 595.45 1267.90 L 595.45 1267.90 L 681.24 1244.69 L 681.24 1244.69 L 612.81 1219.85 L 612.81 1219.85 L 597.00 1213.52 L 597.00 1213.52 L 585.36 1206.98 L 585.36 1206.98 L 564.29 1198.70 L 564.29 1198.70 L 556.52 1196.20 L 556.52 1196.20 L 539.11 1188.07 L 539.11 1188.07 L 519.65 1178.88 L 519.65 1178.88 L 512.33 1174.41 L 512.33 1174.41 L 494.58 1168.69 L 494.58 1168.69 L 483.16 1161.25 L 483.16 1161.25 L 473.73 1156.43 L 473.73 1156.43 L 460.36 1152.97 L 460.36 1152.97 L 452.60 1149.31 L 452.60 1149.31 L 439.46 1141.06 L 439.46 1141.06 L 432.08 1134.55 L 432.08 1134.55 L 426.48 1124.32 L 426.48 1124.32 L 422.38 1115.34 L 422.38 1115.34 L 420.55 1106.95 L 420.55 1106.95 L 421.55 1100.21 L 421.55 1100.21 L 429.59 1090.42 L 429.59 1090.42 L 437.57 1083.24 L 437.57 1083.24 L 442.01 1077.17 L 442.01 1077.17 L 458.04 1066.82 L 458.04 1066.82 L 465.30 1061.88 L 465.30 1061.88 L 478.05 1055.14 L 478.05 1055.14 L 490.09 1044.19 L 490.09 1044.19 L 407.18 1004.68 L 407.18 1004.68 L 400.42 999.59 L 400.42 999.59 L 329.82 1028.97 L 329.82 1028.97 L 318.18 1037.97 L 318.18 1037.97 L 310.58 1044.02 L 310.58 1044.02 L 301.32 1049.28 L 301.32 1049.28 L 221.58 1012.81 L 221.58 1012.81 L 210.93 1003.95 L 210.93 1003.95 L 204.72 995.61 L 204.72 995.61 L 189.41 985.07 L 189.41 985.07 L 176.66 976.99 L 176.66 976.99 L 160.80 971.59 L 160.80 971.59 L 138.51 965.19 L 138.51 965.19 L 124.03 957.99 L 124.03 957.99 L 107.73 952.64 L 107.73 952.64 L 91.48 948.02 L 91.48 948.02 L 68.52 941.46 L 68.52 941.46 L 57.71 939.45 L 57.71 939.45 L 50.00 936.29 L 50.00 936.29 L 140.50 904.41 L 140.50 904.41 L 164.01 901.19 L 164.01 901.19 L 174.50 901.39 L 174.50 901.39 L 187.64 900.17 L 187.64 900.17 L 204.27 897.00 L 204.27 897.00 L 221.80 890.23 L 221.80 890.23 L 239.32 883.93 L 239.32 883.93 L 250.25 876.23 L 250.25 876.23 L 258.84 871.06 L 258.84 871.06 L 266.22 863.68 L 266.22 863.68 L 269.77 857.43 L 269.77 857.43 L 272.54 852.64 L 272.54 852.64 L 273.09 846.25 L 273.09 846.25 L 272.76 836.81 L 272.76 836.81 L 269.66 826.14 L 269.66 826.14 L 267.71 814.03 L 267.71 814.03 L 263.89 807.87 L 263.89 807.87 L 264.22 800.28 L 264.22 800.28 L 284.79 863.85 L 284.79 863.85 L 285.57 869.98 L 285.57 869.98 L 286.96 880.88 L 286.96 880.88 L 285.07 890.99 L 285.07 890.99 L 280.86 899.24 L 280.86 899.24 L 280.08 905.40 L 280.08 905.40 L 173.39 931.61 L 173.39 931.61 L 158.97 934.51 L 158.97 934.51 L 148.04 937.71 L 148.04 937.71 L 204.50 902.58 L 204.50 902.58 L 211.87 894.83 L 211.87 894.83 L 221.63 888.11 L 221.63 888.11 L 243.48 880.76 L 243.48 880.76 L 261.34 876.75 L 261.34 876.75 L 277.97 872.40 L 277.97 872.40 L 294.28 868.33 L 294.28 868.33 L 312.13 865.19 L 312.13 865.19 L 331.43 862.20 L 331.43 862.20 L 358.00 861.91 L 358.00 861.91 L 382.51 866.09 L 382.51 866.09 L 397.15 867.14 L 397.15 867.14 L 422.38 870.59 L 422.38 870.59 L 431.53 872.22 L 431.53 872.22 L 453.32 872.63 L 453.32 872.63 L 478.61 876.58 L 478.61 876.58 L 493.75 882.33 L 493.75 882.33 L 507.06 885.88 L 507.06 885.88 L 518.59 887.62 L 518.59 887.62 L 453.54 859.32 L 453.54 859.32 L 446.17 856.33 L 446.17 856.33 L 437.13 850.69 L 437.13 850.69 L 428.81 847.00 L 428.81 847.00 L 415.39 837.44 L 415.39 837.44 L 395.82 828.03 L 395.82 828.03 L 381.67 817.46 L 381.67 817.46 L 366.81 807.72 L 366.81 807.72 L 357.94 802.90 L 357.94 802.90 L 347.68 800.20 L 347.68 800.20 L 332.60 793.98 L 332.60 793.98 L 315.41 788.75 L 315.41 788.75 L 299.43 781.02 L 299.43 781.02 L 276.31 774.31 L 276.31 774.31 L 268.60 769.87 L 268.60 769.87 L 261.28 765.57 L 261.28 765.57 L 253.52 763.21 L 253.52 763.21 L 238.71 754.44 L 238.71 754.44 L 226.23 749.06 L 226.23 749.06 L 219.52 745.31 L 219.52 745.31 L 208.99 738.31 L 208.99 738.31 L 203.50 733.49 L 203.50 733.49 L 197.79 724.37 L 197.79 724.37 L 192.74 717.95 L 192.74 717.95 L 190.02 708.07 L 190.02 708.07 L 191.08 700.69 L 191.08 700.69 L 196.95 692.73 L 196.95 692.73 L 206.83 680.73 L 206.83 680.73 L 213.15 676.60 L 213.15 676.60 L 224.63 672.59 L 224.63 672.59 L 241.04 670.44 L 241.04 670.44 L 259.67 665.07 L 259.67 665.07 L 271.10 658.88 L 271.10 658.88 L 283.52 650.54 L 283.52 650.54 L 293.61 638.37 L 293.61 638.37 L 303.54 630.41 L 303.54 630.41 L 310.14 625.47 L 310.14 625.47 L 324.78 616.69 L 324.78 616.69 L 335.26 610.13 L 335.26 610.13 L 350.62 604.75 L 350.62 604.75 L 370.20 595.95 L 370.20 595.95 L 388.88 588.08 L 388.88 588.08 L 403.36 580.78 L 403.36 580.78 L 408.79 575.61 L 408.79 575.61 L 416.33 568.38 L 416.33 568.38 L 424.76 561.35 L 424.76 561.35 L 437.91 551.21 L 437.91 551.21 L 443.06 546.85 L 443.06 546.85 L 457.43 535.14 L 457.43 535.14 L 463.97 525.70 L 463.97 525.70 L 467.24 513.55 L 467.24 513.55 L 467.02 508.58 L 467.02 508.58 L 468.07 496.44 L 468.07 496.44 L 473.12 484.59 L 473.12 484.59 L 482.16 475.38 L 482.16 475.38 L 492.08 469.36 L 492.08 469.36 L 510.55 463.64 L 510.55 463.64 L 523.80 460.65 L 523.80 460.65 L 533.23 460.30 L 533.23 460.30 L 555.52 462.19 L 555.52 462.19 L 571.38 460.76 L 571.38 460.76 L 588.19 456.08 L 588.19 456.08 L 601.50 453.24 L 601.50 453.24 L 617.91 446.38 L 617.91 446.38 L 627.28 440.54 L 627.28 440.54 L 645.86 433.13 L 645.86 433.13 L 658.12 430.08 L 658.12 430.08 L 669.26 427.70 L 669.26 427.70 L 678.47 427.50 L 678.47 427.50 L 699.32 430.40 L 699.32 430.40 L 723.55 434.70 L 723.55 434.70 L 733.31 434.99 L 733.31 434.99 L 743.29 435.19 L 743.29 435.19 L 752.17 435.75 L 752.17 435.75 L 767.97 437.64 L 767.97 437.64 L 785.61 442.43 L 785.61 442.43 L 801.08 444.40 L 801.08 444.40 L 819.88 448.21 L 819.88 448.21 L 832.69 453.41 L 832.69 453.41 L 842.50 455.85 L 842.50 455.85 L 857.25 457.39 L 857.25 457.39 L 880.32 459.54 L 880.32 459.54 L 903.78 464.36 L 903.78 464.36 L 918.81 465.47 L 918.81 465.47 L 935.61 465.35 L 935.61 465.35 L 955.85 468.03 L 955.85 468.03 L 966.28 468.17 L 966.28 468.17 L 988.02 472.33 L 988.02 472.33 L 1001.71 472.35 L 1001.71 472.35 L 946.04 446.41 L 946.04 446.41 L 931.84 438.51 L 931.84 438.51 L 919.86 434.29 L 919.86 434.29 L 903.39 426.22 L 903.39 426.22 L 889.36 415.06 L 889.36 415.06 L 881.49 401.87 L 881.49 401.87 L 878.21 394.00 L 878.21 394.00 L 876.44 388.45 L 876.44 388.45 L 877.88 380.46 L 877.88 380.46 L 876.00 372.85 L 876.00 372.85 L 775.85 390.80 L 775.85 390.80 L 756.05 392.25 L 756.05 392.25 L 747.12 393.62 L 747.12 393.62 L 725.94 398.76 L 725.94 398.76 L 708.36 406.34 L 708.36 406.34 L 698.04 408.76 L 698.04 408.76 L 673.86 412.33 L 673.86 412.33 L 743.24 356.89 L 743.24 356.89 L 755.83 348.00 L 755.83 348.00 L 771.69 339.87 L 771.69 339.87 L 786.10 329.61 L 786.10 329.61 L 798.97 322.81 L 798.97 322.81 L 807.79 319.79 L 807.79 319.79 L 818.21 316.51 L 818.21 316.51 L 829.30 312.82 L 829.30 312.82 L 841.89 305.67 L 841.89 305.67 L 855.53 301.14 L 855.53 301.14 L 880.32 296.46 L 880.32 296.46 L 889.42 295.65 L 889.42 295.65 L 907.27 294.08 L 907.27 294.08 L 917.75 294.72 L 917.75 294.72 L 928.35 294.63 L 928.35 294.63 L 939.44 296.06 L 939.44 296.06 L 961.67 300.01 L 961.67 300.01 L 969.72 302.71 L 969.72 302.71 L 979.25 306.89 L 979.25 306.89 L 996.94 310.67 L 996.94 310.67 L 1011.25 317.03 L 1011.25 317.03 L 1032.27 321.68 L 1032.27 321.68 L 1047.02 323.19 L 1047.02 323.19 L 967.05 282.84 L 967.05 282.84 L 945.98 274.41 L 945.98 274.41 L 927.24 264.74 L 927.24 264.74 L 916.98 257.79 L 916.98 257.79 L 908.38 251.37 L 908.38 251.37 L 894.63 239.95 L 894.63 239.95 L 889.14 229.78 L 889.14 229.78 L 880.99 219.18 L 880.99 219.18 L 877.94 213.66 L 877.94 213.66 L 876.77 200.96 L 876.77 200.96 L 877.11 189.40 L 877.11 189.40 L 870.84 178.56 L 870.84 178.56 L 866.40 169.70 L 866.40 169.70 L 866.62 158.34 L 866.62 158.34 L 865.13 149.97 L 865.13 149.97 L 868.45 141.87 L 868.45 141.87 L 929.79 174.64 L 929.79 174.64 L 940.16 183.73 L 940.16 183.73 L 838.07 227.93 L 838.07 227.93 L 820.21 235.25 L 820.21 235.25 L 799.91 242.63 L 799.91 242.63 L 781.83 246.61 L 781.83 246.61 L 770.52 247.80 L 770.52 247.80 L 749.78 250.62 L 749.78 250.62 L 738.97 250.15 L 738.97 250.15 L 718.67 249.31 L 718.67 249.31 L 701.43 250.65 L 701.43 250.65 L 680.69 252.62 L 680.69 252.62 L 657.95 254.77 L 657.95 254.77 L 640.15 256.86 L 640.15 256.86 L 637.21 216.36 L 637.21 216.36 L 638.43 205.55 L 638.43 205.55 L 637.87 193.06 L 637.87 193.06 L 639.93 185.27 L 639.93 185.27 L 647.69 173.80 L 647.69 173.80 L 718.95 199.71 L 718.95 199.71 L 732.20 202.36 L 732.20 202.36 L 744.01 204.65 L 744.01 204.65 L 752.44 206.60 L 752.44 206.60 L 768.97 212.96 L 768.97 212.96 L 783.22 220.05 L 783.22 220.05 L 807.07 225.51 L 807.07 225.51 L 825.31 228.39 L 825.31 228.39 L 843.33 234.52 L 843.33 234.52 L 860.58 243.96 L 860.58 243.96 L 866.35 249.05 L 866.35 249.05 L 871.39 253.67 L 871.39 253.67 L 876.16 257.79 L 876.16 257.79 L 884.59 264.59 L 884.59 264.59 L 896.63 271.07 L 896.63 271.07 L 912.60 278.68 L 912.60 278.68 L 922.80 284.73 L 922.80 284.73 L 943.71 292.80 L 943.71 292.80 L 955.63 296.58 L 955.63 296.58 L 963.67 300.62 L 963.67 300.62 L 976.09 310.09 L 976.09 310.09 L 984.85 315.12 L 984.85 315.12 L 1003.49 321.16 L 1003.49 321.16 L 1022.95 329.96 L 1022.95 329.96 L 1035.93 334.76 L 1035.93 334.76 L 1047.91 337.37 L 1047.91 337.37 L 1071.03 339.40 L 1071.03 339.40 L 1082.90 341.21 L 1082.90 341.21 L 1098.92 341.26 L 1098.92 341.26 L 1110.96 342.57 L 1110.96 342.57 L 1136.47 343.04 L 1136.47 343.04 L 1147.34 343.12 L 1147.34 343.12 L 1162.31 342.43 L 1162.31 342.43 L 1182.88 340.07 L 1182.88 340.07 L 1197.91 338.77 L 1197.91 338.77 L 1221.98 337.57 L 1221.98 337.57 L 1234.73 337.14 L 1234.73 337.14 L 1245.88 337.98 L 1245.88 337.98 L 1265.79 342.86 L 1265.79 342.86 L 1287.69 349.02 L 1287.69 349.02 L 1303.05 352.89 L 1303.05 352.89 L 1315.81 354.66 L 1315.81 354.66 L 1339.93 357.74 L 1339.93 357.74 L 1355.29 361.57 L 1355.29 361.57 L 1377.92 362.79 L 1377.92 362.79 L 1392.83 363.05 L 1392.83 363.05 L 1403.59 363.95 L 1403.59 363.95 L 1422.89 365.55 L 1422.89 365.55 L 1439.36 368.57 L 1439.36 368.57 L 1465.42 369.01 L 1465.42 369.01 L 1490.21 372.03 L 1490.21 372.03 L 1508.51 375.93 L 1508.51 375.93 L 1526.15 381.45 L 1526.15 381.45 L 1532.86 384.50 L 1532.86 384.50 L 1549.88 389.73 L 1549.88 389.73 L 1561.58 394.46 L 1561.58 394.46 L 1581.77 401.78 L 1581.77 401.78 L 1597.79 411.63 L 1597.79 411.63 L 1530.31 438.39 L 1530.31 438.39 L 1519.22 444.09 L 1519.22 444.09 L 1508.73 449.72 L 1508.73 449.72 L 1488.38 456.23 L 1488.38 456.23 L 1472.13 466.02 L 1472.13 466.02 L 1453.28 475.03 L 1453.28 475.03 L 1444.91 479.88 L 1444.91 479.88 L 1433.65 487.81 L 1433.65 487.81 L 1426.44 491.01 L 1426.44 491.01 L 1411.80 495.63 L 1411.80 495.63 L 1396.55 499.20 L 1396.55 499.20 L 1374.81 504.34 L 1374.81 504.34 L 1353.29 505.42 L 1353.29 505.42 L 1334.88 503.01 L 1334.88 503.01 L 1319.69 502.25 L 1319.69 502.25 L 1308.49 500.33 L 1308.49 500.33 L 1297.34 497.46 L 1297.34 497.46 L 1287.75 492.63 L 1287.75 492.63 L 1275.27 482.61 L 1275.27 482.61 L 1350.13 486.88 L 1350.13 486.88 L 1373.20 492.58 L 1373.20 492.58 L 1391.00 494.78 L 1391.00 494.78 L 1413.85 494.78 L 1413.85 494.78 L 1428.55 496.73 L 1428.55 496.73 L 1447.90 495.74 L 1447.90 495.74 L 1466.87 491.27 L 1466.87 491.27 L 1490.05 486.65 L 1490.05 486.65 L 1500.25 485.54 L 1500.25 485.54 L 1523.65 484.09 L 1523.65 484.09 L 1546.17 483.48 L 1546.17 483.48 L 1528.64 448.53 L 1528.64 448.53 L 1527.26 434.73 L 1527.26 434.73 L 1528.59 430.11 L 1528.59 430.11 L 1539.57 419.39 L 1539.57 419.39 L 1550.71 409.57 L 1550.71 409.57 L 1556.98 403.00 L 1556.98 403.00 L 1558.98 396.15 L 1558.98 396.15 L 1566.52 385.60 L 1566.52 385.60 L 1568.51 378.28 L 1568.51 378.28 L 1570.84 366.92 L 1570.84 366.92 L 1570.46 360.88 L 1570.46 360.88 L 1572.90 356.37 L 1572.90 356.37 L 1578.94 350.44 L 1578.94 350.44 L 1584.54 346.67 L 1584.54 346.67 L 1605.23 339.75 L 1605.23 339.75 L 1623.75 335.02 L 1623.75 335.02 L 1644.54 327.00 L 1644.54 327.00 L 1650.92 322.38 L 1650.92 322.38 L 1656.13 315.09 L 1656.13 315.09 L 1656.52 308.46 L 1656.52 308.46 L 1655.74 303.61 L 1655.74 303.61 L 1654.03 290.07 L 1654.03 290.07 L 1655.08 280.22 L 1655.08 280.22 L 1655.08 275.34 L 1655.08 275.34 L 1651.86 266.04 L 1651.86 266.04 L 1642.16 253.29 L 1642.16 253.29 L 1632.12 242.19 L 1632.12 242.19 L 1626.96 230.69 L 1626.96 230.69 L 1623.53 223.77 L 1623.53 223.77 L 1612.43 214.62 L 1612.43 214.62 L 1599.35 208.40 L 1599.35 208.40 L 1590.97 205.87 L 1590.97 205.87 L 1569.90 201.34 L 1569.90 201.34 L 1543.89 200.27 L 1543.89 200.27 L 1534.52 201.22 L 1534.52 201.22 L 1514.72 207.15 L 1514.72 207.15 L 1575.83 232.81 L 1575.83 232.81 L 1590.31 239.14 L 1590.31 239.14 L 1597.07 242.83 L 1597.07 242.83 L 1607.55 252.24 L 1607.55 252.24 L 1621.92 261.51 L 1621.92 261.51 L 1643.60 268.34 L 1643.60 268.34 L 1662.23 272.32 L 1662.23 272.32 L 1682.03 276.01 L 1682.03 276.01 L 1701.16 282.05 L 1701.16 282.05 L 1711.86 285.34 L 1711.86 285.34 L 1720.29 288.01 L 1720.29 288.01 L 1791.50 262.18 L 1791.50 262.18 L 1809.52 259.01 L 1809.52 259.01 L 1820.28 256.11 L 1820.28 256.11 L 1831.31 254.39 L 1831.31 254.39 L 1849.39 249.69 L 1849.39 249.69 L 1872.79 247.13 L 1872.79 247.13 L 1890.65 247.45 L 1890.65 247.45 L 1910.11 250.30 L 1910.11 250.30 L 1922.54 254.86 L 1922.54 254.86 L 1939.28 261.54 L 1939.28 261.54 L 1946.16 265.00 L 1946.16 265.00 L 1968.56 271.13 L 1968.56 271.13 L 1978.71 272.32 L 1978.71 272.32 L 1935.51 221.16 L 1935.51 221.16 L 2048.97 230.37 L 2048.97 230.37 L 2061.95 229.81 L 2061.95 229.81 L 2021.69 291.49 L 2021.69 291.49 L 2014.81 297.77 L 2014.81 297.77 L 2009.16 308.35 L 2009.16 308.35 L 2006.22 320.52 L 2006.22 320.52 L 2002.06 330.72 L 2002.06 330.72 L 1995.63 337.69 L 1995.63 337.69 L 1981.71 345.77 L 1981.71 345.77 L 1962.46 353.87 L 1962.46 353.87 L 1954.26 357.65 L 1954.26 357.65 L 1940.78 365.18 L 1940.78 365.18 L 1922.59 370.61 L 1922.59 370.61 L 1982.21 415.50 L 1982.21 415.50 L 1990.41 419.83 L 1990.41 419.83 L 2008.10 424.59 L 2008.10 424.59 L 2022.35 430.28 L 2022.35 430.28 L 2034.78 435.80 L 2034.78 435.80 L 2055.96 443.13 L 2055.96 443.13 L 2076.64 446.93 L 2076.64 446.93 L 2096.89 451.20 L 2096.89 451.20 L 2117.40 453.15 L 2117.40 453.15 L 2129.27 455.59 L 2129.27 455.59 L 2138.03 456.69 L 2138.03 456.69 L 2149.35 457.39 L 2149.35 457.39 L 2162.54 456.14 L 2162.54 456.14 L 2171.92 455.04 L 2171.92 455.04 L 2181.84 454.17 L 2181.84 454.17 L 2192.27 452.69 L 2192.27 452.69 L 2209.90 451.44 L 2209.90 451.44 L 2226.32 449.05 L 2226.32 449.05 L 2251.60 448.15 L 2251.60 448.15 L 2271.73 443.91 L 2271.73 443.91 L 2293.36 443.36 L 2293.36 443.36 L 2305.95 443.01 L 2305.95 443.01 L 2314.77 443.97 L 2314.77 443.97 L 2333.23 446.55 L 2333.23 446.55 L 2345.60 450.04 L 2345.60 450.04 L 2362.24 451.90 L 2362.24 451.90 L 2288.76 464.07 L 2288.76 464.07 L 2270.29 465.21 L 2270.29 465.21 L 2259.92 467.04 L 2259.92 467.04 L 2241.96 469.54 L 2241.96 469.54 L 2226.98 469.30 L 2226.98 469.30 L 2327.24 510.50 L 2327.24 510.50 L 2350.54 516.92 L 2350.54 516.92 L 2369.45 520.55 L 2369.45 520.55 L 2391.41 526.57 L 2391.41 526.57 L 2401.94 531.13 L 2401.94 531.13 L 2412.76 538.95 L 2412.76 538.95 L 2420.13 542.26 L 2420.13 542.26 L 2440.26 551.26 L 2440.26 551.26 L 2448.41 558.15 L 2448.41 558.15 L 2460.17 563.79 L 2460.17 563.79 L 2472.54 575.26 L 2472.54 575.26 L 2481.08 584.01 L 2481.08 584.01 L 2487.12 588.51 L 2487.12 588.51 L 2495.77 595.57 L 2495.77 595.57 L 2504.75 599.41 L 2504.75 599.41 L 2512.80 602.98 L 2512.80 602.98 L 2530.60 611.75 L 2530.60 611.75 L 2542.85 622.97 L 2542.85 622.97 L 2549.89 632.70 L 2549.89 632.70 L 2553.83 642.38 L 2553.83 642.38 L 2560.04 653.16 L 2560.04 653.16 L 2562.93 662.71 L 2562.93 662.71 L 2568.58 671.58 L 2568.58 671.58 L 2580.95 683.11 L 2580.95 683.11 L 2588.66 687.93 L 2588.66 687.93 L 2594.54 695.89 L 2594.54 695.89 L 2601.63 707.08 L 2601.63 707.08 L 2609.45 716.61 L 2609.45 716.61 L 2621.43 726.05 L 2621.43 726.05 L 2636.07 737.44 L 2636.07 737.44 L 2649.16 744.79 L 2649.16 744.79 L 2660.53 752.20 L 2660.53 752.20 L 2670.79 755.57 L 2670.79 755.57 L 2618.71 783.26 L 2618.71 783.26 L 2610.73 787.38 L 2610.73 787.38 L 2599.42 791.74 L 2599.42 791.74 L 2579.45 796.07 L 2579.45 796.07 L 2562.48 800.11 L 2562.48 800.11 L 2550.45 801.01 L 2550.45 801.01 L 2530.49 801.80 L 2530.49 801.80 L 2610.51 783.93 L 2610.51 783.93 L 2621.93 782.62 L 2621.93 782.62 L 2632.41 779.71 L 2632.41 779.71 L 2649.66 775.27 L 2649.66 775.27 L 2659.20 772.19 L 2659.20 772.19 L 2673.17 770.30 L 2673.17 770.30 L 2697.90 771.11 L 2697.90 771.11 L 2708.44 770.07 L 2708.44 770.07 L 2615.22 751.62 L 2615.22 751.62 L 2592.65 748.13 L 2592.65 748.13 L 2583.44 747.67 L 2583.44 747.67 L 2565.98 747.55 L 2565.98 747.55 L 2552.45 749.32 L 2552.45 749.32 L 2543.79 751.15 L 2543.79 751.15 L 2523.17 759.09 L 2523.17 759.09 L 2504.92 765.59 L 2504.92 765.59 L 2507.31 729.42 L 2507.31 729.42 L 2507.47 724.54 L 2507.47 724.54 L 2504.92 712.63 L 2504.92 712.63 L 2501.04 700.95 L 2501.04 700.95 L 2493.16 693.28 L 2493.16 693.28 L 2479.74 682.67 L 2479.74 682.67 L 2474.59 676.37 L 2474.59 676.37 L 2465.22 669.31 L 2465.22 669.31 L 2448.14 659.08 L 2448.14 659.08 L 2440.93 656.00 L 2440.93 656.00 L 2428.28 649.61 L 2428.28 649.61 L 2417.14 641.80 L 2417.14 641.80 L 2413.75 637.12 L 2413.75 637.12 L 2405.55 629.88 L 2405.55 629.88 L 2372.33 672.42 L 2372.33 672.42 L 2364.73 681.13 L 2364.73 681.13 L 2352.31 688.05 L 2352.31 688.05 L 2332.96 695.11 L 2332.96 695.11 L 2325.75 698.13 L 2325.75 698.13 L 2308.22 705.54 L 2308.22 705.54 L 2291.03 714.58 L 2291.03 714.58 L 2277.56 721.64 L 2277.56 721.64 L 2267.24 728.14 L 2267.24 728.14 L 2259.53 737.53 L 2259.53 737.53 L 2249.11 745.43 L 2249.11 745.43 L 2243.29 754.35 L 2243.29 754.35 L 2242.57 761.44 L 2242.57 761.44 L 2246.28 774.60 L 2246.28 774.60 L 2172.80 729.80 L 2172.80 729.80 L 2166.93 721.78 L 2166.93 721.78 L 2158.77 716.06 L 2158.77 716.06 L 2154.61 711.70 L 2154.61 711.70 L 2152.29 707.23 L 2152.29 707.23 L 2148.90 695.17 L 2148.90 695.17 L 2143.86 684.33 L 2143.86 684.33 L 2136.54 671.17 L 2136.54 671.17 L 2137.53 659.90 L 2137.53 659.90 L 2140.64 652.55 L 2140.64 652.55 L 2139.20 646.33 L 2139.20 646.33 L 2136.48 641.65 L 2136.48 641.65 L 2136.87 636.92 L 2136.87 636.92 L 2137.48 623.55 L 2137.48 623.55 L 2137.42 612.74 L 2137.42 612.74 L 2134.76 600.92 L 2134.76 600.92 L 2131.10 595.46 L 2131.10 595.46 L 2128.16 590.69 L 2128.16 590.69 L 2126.94 582.67 L 2126.94 582.67 L 2127.72 575.18 L 2127.72 575.18 L 2130.38 564.51 L 2130.38 564.51 L 2132.04 559.66 L 2132.04 559.66 L 2137.70 548.97 L 2137.70 548.97 L 2139.53 539.61 L 2139.53 539.61 L 2142.53 529.85 L 2142.53 529.85 L 2149.12 521.46 L 2149.12 521.46 L 2153.45 507.83 L 2153.45 507.83 L 2159.94 500.39 L 2159.94 500.39 L 2167.04 494.70 L 2167.04 494.70 L 2173.75 485.95 L 2173.75 485.95 L 2175.47 481.33 L 2175.47 481.33 L 2174.86 467.56 L 2174.86 467.56 L 2176.91 461.37 L 2176.91 461.37 L 2183.62 448.15 L 2183.62 448.15 L 2211.62 487.84 L 2211.62 487.84 L 2213.12 492.95 L 2213.12 492.95 L 2210.68 502.60 L 2210.68 502.60 L 2204.69 508.85 L 2204.69 508.85 L 2186.39 518.93 L 2186.39 518.93 L 2174.91 528.75 L 2174.91 528.75 L 2170.03 533.48 L 2170.03 533.48 L 2161.38 543.74 L 2161.38 543.74 L 2156.67 551.26 L 2156.67 551.26 L 2232.47 579.97 L 2232.47 579.97 L 2252.16 587.90 L 2252.16 587.90 L 2264.08 591.91 L 2264.08 591.91 L 2277.89 597.98 L 2277.89 597.98 L 2290.81 605.62 L 2290.81 605.62 L 2309.00 612.60 L 2309.00 612.60 L 2321.48 617.22 L 2321.48 617.22 L 2330.63 620.99 L 2330.63 620.99 L 2350.26 627.65 L 2350.26 627.65 L 2359.69 632.76 L 2359.69 632.76 L 2378.32 638.83 L 2378.32 638.83 L 2390.91 642.73 L 2390.91 642.73 L 2405.49 644.29 L 2405.49 644.29 L 2427.23 646.65 L 2427.23 646.65 L 2435.33 648.91 L 2435.33 648.91 L 2449.80 651.44 L 2449.80 651.44 L 2467.60 654.20 L 2467.60 654.20 L 2409.87 710.39 L 2409.87 710.39 L 2395.29 717.25 L 2395.29 717.25 L 2384.14 721.37 L 2384.14 721.37 L 2364.18 725.24 L 2364.18 725.24 L 2340.94 730.85 L 2340.94 730.85 L 2329.57 733.52 L 2329.57 733.52 L 2315.60 735.15 L 2315.60 735.15 L 2304.95 736.66 L 2304.95 736.66 L 2286.65 737.50 L 2286.65 737.50 L 2267.80 736.54 L 2267.80 736.54 L 2249.22 738.95 L 2249.22 738.95 L 2226.15 738.72 L 2226.15 738.72 L 2207.68 735.17 L 2207.68 735.17 L 2192.21 728.78 L 2192.21 728.78 L 2175.35 724.19 L 2175.35 724.19 L 2159.77 719.40 L 2159.77 719.40 L 2144.85 715.62 L 2144.85 715.62 L 2136.65 711.53 L 2136.65 711.53 L 2121.73 702.32 L 2121.73 702.32 L 2111.86 696.94 L 2111.86 696.94 L 2094.34 689.56 L 2094.34 689.56 L 2079.81 682.99 L 2079.81 682.99 L 2072.65 678.90 L 2072.65 678.90 L 2065.83 673.35 L 2065.83 673.35 L 2058.95 670.30 L 2058.95 670.30 L 2048.86 661.32 L 2048.86 661.32 L 2045.53 656.35 L 2045.53 656.35 L 2030.62 645.63 L 2030.62 645.63 L 2021.58 639.70 L 2021.58 639.70 L 2013.54 631.77 L 2013.54 631.77 L 2004.78 618.87 L 2004.78 618.87 L 2101.60 633.78 L 2101.60 633.78 L 2119.01 634.13 L 2119.01 634.13 L 2134.37 633.14 L 2134.37 633.14 L 2143.25 631.31 L 2143.25 631.31 L 2160.44 630.61 L 2160.44 630.61 L 2173.86 629.56 L 2173.86 629.56 L 2158.72 568.75 L 2158.72 568.75 L 2150.95 558.03 L 2150.95 558.03 L 2145.30 546.73 L 2145.30 546.73 L 2145.91 535.17 L 2145.91 535.17 L 2146.07 524.16 L 2146.07 524.16 L 2152.45 514.63 L 2152.45 514.63 L 2168.09 504.05 L 2168.09 504.05 L 2173.75 499.58 L 2173.75 499.58 L 2180.51 490.63 L 2180.51 490.63 L 2193.71 479.71 L 2193.71 479.71 L 2199.31 475.43 L 2199.31 475.43 L 2208.13 462.65 L 2208.13 462.65 L 2216.72 454.02 L 2216.72 454.02 L 2224.76 448.59 L 2224.76 448.59 L 2237.96 443.59 L 2237.96 443.59 L 2252.49 438.04 L 2252.49 438.04 L 2269.07 431.74 L 2269.07 431.74 L 2292.25 426.13 L 2292.25 426.13 L 2313.44 420.96 L 2313.44 420.96 L 2327.13 416.77 L 2327.13 416.77 L 2341.50 409.45 L 2341.50 409.45 L 2353.70 397.48 L 2353.70 397.48 L 2357.86 392.37 L 2357.86 392.37 L 2359.85 378.69 L 2359.85 378.69 L 2367.39 366.92 L 2367.39 366.92 L 2370.89 358.17 L 2370.89 358.17 L 2378.10 351.81 L 2378.10 351.81 L 2382.20 343.82 L 2382.20 343.82 L 2384.47 338.18 L 2384.47 338.18 L 2387.25 330.11 L 2387.25 330.11 L 2389.24 325.14 L 2389.24 325.14 L 2394.51 316.74 L 2394.51 316.74 L 2401.94 310.70 L 2401.94 310.70 L 2416.30 304.02 L 2416.30 304.02 L 2437.16 297.74 L 2437.16 297.74 L 2449.97 295.33 L 2449.97 295.33 L 2466.77 288.73 L 2466.77 288.73 L 2479.63 283.45 L 2479.63 283.45 L 2496.71 274.99 L 2496.71 274.99 L 2509.47 263.28 L 2509.47 263.28 L 2512.68 256.08 L 2512.68 256.08 L 2525.11 244.86 L 2525.11 244.86 L 2533.98 239.37 L 2533.98 239.37 L 2547.73 229.52 L 2547.73 229.52 L 2556.49 225.63 L 2556.49 225.63 L 2563.31 222.41 L 2563.31 222.41 L 2541.24 228.94 L 2541.24 228.94 L 2517.56 231.67 L 2517.56 231.67 L 2505.86 231.09 L 2505.86 231.09 L 2494.50 230.16 L 2494.50 230.16 L 2472.26 231.09 L 2472.26 231.09 L 2483.68 169.12 L 2483.68 169.12 L 2423.74 126.61 L 2423.74 126.61 L 2377.32 86.96 L 2377.32 86.96 L 2362.18 94.66 L 2362.18 94.66 L 2360.91 106.51 L 2360.91 106.51 L 2352.25 110.81 L 2352.25 110.81 L 2343.44 114.70 L 2343.44 114.70 L 2331.96 121.68 L 2331.96 121.68 L 2326.47 126.30 L 2326.47 126.30 L 2321.31 132.77 L 2321.31 132.77 L 2303.73 141.08 L 2303.73 141.08 L 2300.07 154.51 L 2300.07 154.51 L 2289.98 165.72 L 2289.98 165.72 L 2282.44 172.17 L 2282.44 172.17 L 2264.69 181.38 L 2264.69 181.38 L 2254.60 191.40 L 2254.60 191.40 L 2248.50 202.01 L 2248.50 202.01 L 2248.06 215.81 L 2248.06 215.81 L 2246.95 227.43 L 2246.95 227.43 L 2246.95 236.47 L 2246.95 236.47 L 2244.73 244.49 L 2244.73 244.49 L 2246.61 254.39 L 2246.61 254.39 L 2245.45 259.42 L 2245.45 259.42 L 2240.85 265.46 L 2240.85 265.46 L 2197.54 202.76 L 2197.54 202.76 L 2189.88 194.80 L 2189.88 194.80 L 2173.47 184.84 L 2173.47 184.84 L 2162.38 175.11 L 2162.38 175.11 L 2087.57 180.07 L 2087.57 180.07 L 2071.82 182.75 L 2071.82 182.75 L 2055.13 182.72 L 2055.13 182.72 L 2029.90 184.95 L 2029.90 184.95 L 2016.98 187.74 L 2016.98 187.74 L 1990.97 188.56 L 1990.97 188.56 L 1967.79 192.89 L 1967.79 192.89 L 1948.27 197.45 L 1948.27 197.45 L 1931.96 200.64 L 1931.96 200.64 L 1915.22 204.13 L 1915.22 204.13 L 1901.41 207.97 L 1901.41 207.97 L 1876.56 211.16 L 1876.56 211.16 L 1864.92 215.03 L 1864.92 215.03 L 1847.40 221.88 L 1847.40 221.88 L 1908.51 255.24 L 1908.51 255.24 L 1921.93 261.80 L 1921.93 261.80 L 1934.13 266.54 L 1934.13 266.54 L 1950.26 274.79 L 1950.26 274.79 L 1963.52 278.36 L 1963.52 278.36 L 1981.32 282.14 L 1981.32 282.14 L 1979.82 225.98 L 1979.82 225.98 L 1979.32 215.84 L 1979.32 215.84 L 1976.66 206.31 L 1976.66 206.31 L 1966.35 195.33 L 1966.35 195.33 L 1959.91 184.78 L 1959.91 184.78 L 1947.55 172.43 L 1947.55 172.43 L 1943.39 167.49 L 1943.39 167.49 L 1937.45 163.72 L 1937.45 163.72 L 1922.20 157.27 L 1922.20 157.27 L 1905.84 154.04 L 1905.84 154.04 L 1916.38 112.64 L 1916.38 112.64 L 1915.27 104.53 L 1915.27 104.53 L 1907.23 94.31 L 1907.23 94.31 L 1899.08 85.68 L 1899.08 85.68 L 1888.71 74.49 L 1888.71 74.49 L 1878.39 64.93 L 1878.39 64.93 L 1877.84 73.56 L 1877.84 73.56 L 1883.22 84.20 L 1883.22 84.20 L 1888.27 96.25 L 1888.27 96.25 L 1885.22 108.80 L 1885.22 108.80 L 1883.00 122.31 L 1883.00 122.31 L 1881.83 127.63 L 1881.83 127.63 L 1874.12 137.60 L 1874.12 137.60 L 1871.80 146.63 L 1871.80 146.63 L 1874.68 154.80 L 1874.68 154.80 L 1873.57 166.36 L 1873.57 166.36 L 1866.53 176.24 L 1866.53 176.24 L 1857.99 182.22 L 1857.99 182.22 L 1853.05 186.90 L 1853.05 186.90 L 1838.36 194.54 L 1838.36 194.54 L 1825.60 205.61 L 1825.60 205.61 L 1820.17 214.33 L 1820.17 214.33 L 1919.87 208.28 L 1919.87 208.28 L 1935.01 204.51 L 1935.01 204.51 L 1944.44 203.90 L 1944.44 203.90 L 1960.63 200.93 L 1960.63 200.93 L 1985.53 200.47 L 1985.53 200.47 L 2008.49 199.42 L 2008.49 199.42 L 2019.14 200.50 L 2019.14 200.50 L 2031.89 201.25 L 2031.89 201.25 L 2044.15 203.72 L 2044.15 203.72 L 2062.50 211.74 L 2062.50 211.74 L 2081.80 220.87 L 2081.80 220.87 L 2092.51 228.80 L 2092.51 228.80 L 2104.37 235.19 L 2104.37 235.19 L 2059.07 275.92 L 2059.07 275.92 L 2047.03 284.06 L 2047.03 284.06 L 2039.32 289.61 L 2039.32 289.61 L 2021.52 297.92 L 2021.52 297.92 L 2007.38 304.25 L 2007.38 304.25 L 1991.08 308.61 L 1991.08 308.61 L 1976.49 314.24 L 1976.49 314.24 L 1967.68 319.04 L 1967.68 319.04 L 1958.64 327.41 L 1958.64 327.41 L 1943.22 335.48 L 1943.22 335.48 L 1932.63 342.16 L 1932.63 342.16 L 1997.79 392.89 L 1997.79 392.89 L 2006.55 398.06 L 2006.55 398.06 L 2021.08 405.27 L 2021.08 405.27 L 2030.89 412.10 L 2030.89 412.10 L 2045.92 417.50 L 2045.92 417.50 L 2057.68 425.29 L 2057.68 425.29 L 2065.78 436.85 L 2065.78 436.85 L 2072.76 441.33 L 2072.76 441.33 L 2076.76 446.21 L 2076.76 446.21 L 2080.47 452.74 L 2080.47 452.74 L 2084.74 466.20 L 2084.74 466.20 L 2094.22 477.82 L 2094.22 477.82 L 2107.53 489.76 L 2107.53 489.76 L 2119.29 495.25 L 2119.29 495.25 L 2137.59 500.22 L 2137.59 500.22 L 2147.96 503.67 L 2147.96 503.67 L 2168.09 507.89 L 2168.09 507.89 L 2180.73 512.59 L 2180.73 512.59 L 2195.26 518.70 L 2195.26 518.70 L 2210.68 524.22 L 2210.68 524.22 L 2220.66 527.06 L 2220.66 527.06 L 2232.97 529.76 L 2232.97 529.76 L 2240.51 532.87 L 2240.51 532.87 L 2302.68 472.79 L 2302.68 472.79 L 2309.44 466.37 L 2309.44 466.37 L 2315.38 456.00 L 2315.38 456.00 L 2317.43 446.61 L 2317.43 446.61 L 2317.60 439.29 L 2317.60 439.29 L 2316.32 432.96 L 2316.32 432.96 L 2307.89 422.21 L 2307.89 422.21 L 2297.85 413.14 L 2297.85 413.14 L 2281.61 405.01 L 2281.61 405.01 L 2271.46 400.42 L 2271.46 400.42 L 2252.33 434.29 L 2252.33 434.29 L 2245.78 441.15 L 2245.78 441.15 L 2234.36 447.75 L 2234.36 447.75 L 2227.04 450.48 L 2227.04 450.48 L 2224.76 411.28 L 2224.76 411.28 L 2222.49 405.41 L 2222.49 405.41 L 2217.11 398.94 L 2217.11 398.94 L 2205.41 386.99 L 2205.41 386.99 L 2201.75 381.91 L 2201.75 381.91 L 2201.09 371.60 L 2201.09 371.60 L 2198.04 361.63 L 2198.04 361.63 L 2193.99 355.21 L 2193.99 355.21 L 2185.78 346.73 L 2185.78 346.73 L 2179.74 335.48 L 2179.74 335.48 L 2170.97 325.95 L 2170.97 325.95 L 2164.32 321.07 L 2164.32 321.07 L 2156.28 317.73 L 2156.28 317.73 L 2148.24 315.12 L 2148.24 315.12 L 2128.99 307.91 L 2128.99 307.91 L 2118.57 300.24 L 2118.57 300.24 L 2112.41 290.22 L 2112.41 290.22 L 2110.14 277.75 L 2110.14 277.75 L 2108.14 270.98 L 2108.14 270.98 L 2105.65 261.02 L 2105.65 261.02 L 2107.92 255.09 L 2107.92 255.09 L 2109.14 247.83 L 2109.14 247.83 L 2109.03 234.87 L 2109.03 234.87 L 2111.36 223.07 L 2111.36 223.07 L 2112.52 215.58 L 2112.52 215.58 L 2112.14 207.15 L 2112.14 207.15 L 2117.46 196.69 L 2117.46 196.69 L 2125.89 185.83 L 2125.89 185.83 L 2131.71 181.88 L 2131.71 181.88 L 2146.13 176.15 L 2146.13 176.15 L 2155.17 171.39 L 2155.17 171.39 L 2165.98 160.11 L 2165.98 160.11 L 2169.09 146.98 L 2169.09 146.98 L 2178.29 135.36 L 2178.29 135.36 L 2060.56 145.99 L 2060.56 145.99 L 2049.42 148.26 L 2049.42 148.26 L 2026.35 151.72 L 2026.35 151.72 L 2010.54 154.97 L 2010.54 154.97 L 1965.68 94.60 L 1965.68 94.60 L 2021.91 50.00 L 2021.91 50.00 L 2003.44 58.95 L 2003.44 58.95 L 1995.35 67.20 L 1995.35 67.20 L 1987.36 79.23 L 1987.36 79.23 L 1980.71 84.20 L 1980.71 84.20 L 1964.79 92.91 L 1964.79 92.91 L 1946.83 100.23 L 1946.83 100.23 L 1925.31 107.53 L 1925.31 107.53 L 1904.68 113.95 L 1904.68 113.95 L 1886.44 116.18 L 1886.44 116.18 L 1933.79 179.58 L 1933.79 179.58 L 1946.71 191.29 L 1946.71 191.29 L 1953.04 197.07 L 1953.04 197.07 L 1961.08 206.54 L 1961.08 206.54 L 1962.46 211.22 L 1962.46 211.22 L 2039.43 199.16 L 2039.43 199.16 L 2051.30 197.77 L 2051.30 197.77 L 2072.32 190.79 L 2072.32 190.79 L 2085.19 182.08 L 2085.19 182.08 L 2099.83 176.99 L 2099.83 176.99 L 2114.24 169.56 L 2114.24 169.56 L 2125.56 161.94 L 2125.56 161.94 L 2159.55 192.94 L 2159.55 192.94 L 2164.10 200.67 L 2164.10 200.67 L 2174.30 212.58 L 2174.30 212.58 L 2179.01 220.08 L 2179.01 220.08 L 2190.55 232.14 L 2190.55 232.14 L 2086.96 192.22 L 2086.96 192.22 L 2070.43 182.43 L 2070.43 182.43 L 2055.24 176.04 L 2055.24 176.04 L 2043.59 165.90 L 2043.59 165.90 L 2038.71 159.77 L 2038.71 159.77 L 2031.89 155.61 L 2031.89 155.61 L 1960.69 166.53 L 1960.69 166.53 L 1941.39 170.69 L 1941.39 170.69 L 1932.35 172.96 L 1932.35 172.96 L 1923.26 177.05 L 1923.26 177.05 L 1906.51 180.74 L 1906.51 180.74 L 1888.71 186.09 L 1888.71 186.09 L 1877.23 187.45 L 1877.23 187.45 L 1852.61 192.65 L 1852.61 192.65 L 1840.35 198.41 L 1840.35 198.41 L 1829.59 205.87 L 1829.59 205.87 L 1840.96 166.36 L 1840.96 166.36 L 1846.95 156.89 L 1846.95 156.89 L 1850.78 145.59 L 1850.78 145.59 L 1852.83 136.78 L 1852.83 136.78 L 1853.55 124.12 L 1853.55 124.12 L 1851.78 116.39 L 1851.78 116.39 L 1855.88 103.75 L 1855.88 103.75 L 1858.26 96.37 L 1858.26 96.37 L 1856.38 86.96 L 1856.38 86.96 L 1858.82 73.42 L 1858.82 73.42 L 1855.33 59.88 L 1855.33 59.88 L 1857.32 68.48 L 1857.32 68.48 L 1860.15 78.33 L 1860.15 78.33 L 1863.81 85.74 L 1863.81 85.74 L 1862.59 93.03 L 1862.59 93.03 L 1864.36 98.46 L 1864.36 98.46 L 1863.14 111.39 L 1863.14 111.39 L 1865.64 120.02 L 1865.64 120.02 L 1866.80 129.11 L 1866.80 129.11 L 1871.74 135.77 L 1871.74 135.77 L 1873.85 145.59 L 1873.85 145.59 L 1873.29 156.08 L 1873.29 156.08 L 1988.03 152.24 L 1988.03 152.24 L 2002.95 151.98 L 2002.95 151.98 L 2017.14 151.92 L 2017.14 151.92 L 2029.73 152.18 L 2029.73 152.18 L 2016.14 98.26 L 2016.14 98.26 L 1989.47 165.37 L 1989.47 165.37 L 1985.37 174.87 L 1985.37 174.87 L 1979.71 179.90 L 1979.71 179.90 L 1972.94 186.38 L 1972.94 186.38 L 1959.69 195.79 L 1959.69 195.79 L 1950.65 200.61 L 1950.65 200.61 L 1945.61 204.51 L 1945.61 204.51 L 1932.85 212.15 L 1932.85 212.15 L 1924.53 221.21 L 1924.53 221.21 L 1914.88 233.45 L 1914.88 233.45 L 1904.79 241.70 L 1904.79 241.70 L 1892.48 253.96 L 1892.48 253.96 L 1879.17 261.34 L 1879.17 261.34 L 1869.36 266.65 L 1869.36 266.65 L 1848.89 272.90 L 1848.89 272.90 L 1830.87 275.78 L 1830.87 275.78 L 1806.58 280.72 L 1806.58 280.72 L 1784.57 288.50 L 1784.57 288.50 L 1771.15 294.52 L 1771.15 294.52 L 1757.95 300.30 L 1757.95 300.30 L 1738.59 307.97 L 1738.59 307.97 L 1717.19 312.41 L 1717.19 312.41 L 1705.65 312.59 L 1705.65 312.59 L 1693.23 315.06 L 1693.23 315.06 L 1685.52 318.02 L 1685.52 318.02 L 1668.94 321.54 L 1668.94 321.54 L 1655.13 322.26 L 1655.13 322.26 L 1635.67 325.78 L 1635.67 325.78 L 1611.60 328.31 L 1611.60 328.31 L 1590.09 332.00 L 1590.09 332.00 L 1669.22 358.26 L 1669.22 358.26 L 1691.35 362.76 L 1691.35 362.76 L 1700.00 364.80 L 1700.00 364.80 L 1672.55 332.87 L 1672.55 332.87 L 1663.12 326.91 L 1663.12 326.91 L 1642.93 318.05 L 1642.93 318.05 L 1627.13 310.35 L 1627.13 310.35 L 1613.43 306.05 L 1613.43 306.05 L 1603.01 302.45 L 1603.01 302.45 L 1592.53 296.78 L 1592.53 296.78 L 1574.12 291.70 L 1574.12 291.70 L 1560.97 290.27 L 1560.97 290.27 L 1537.85 287.98 L 1537.85 287.98 L 1515.67 287.75 L 1515.67 287.75 L 1499.25 285.51 L 1499.25 285.51 L 1451.78 334.90 L 1451.78 334.90 L 1447.07 346.87 L 1447.07 346.87 L 1449.29 355.12 L 1449.29 355.12 L 1456.22 362.39 L 1456.22 362.39 L 1465.53 324.50 L 1465.53 324.50 L 1463.98 314.88 L 1463.98 314.88 L 1535.35 310.18 L 1535.35 310.18 L 1443.30 286.76 L 1443.30 286.76 L 1433.59 285.19 L 1433.59 285.19 L 1409.41 281.56 L 1409.41 281.56 L 1416.01 234.93 L 1416.01 234.93 L 1419.12 224.26 L 1419.12 224.26 L 1418.29 216.65 L 1418.29 216.65 L 1414.63 208.34 L 1414.63 208.34 L 1414.02 202.56 L 1414.02 202.56 L 1408.97 190.77 L 1408.97 190.77 L 1405.09 180.16 L 1405.09 180.16 L 1396.72 169.64 L 1396.72 169.64 L 1390.28 159.97 L 1390.28 159.97 L 1379.97 151.19 L 1379.97 151.19 L 1375.98 146.81 L 1375.98 146.81 L 1363.44 138.32 L 1363.44 138.32 L 1351.13 131.96 L 1351.13 131.96 L 1335.94 124.81 L 1335.94 124.81 L 1327.56 121.73 L 1327.56 121.73 L 1318.80 119.76 L 1318.80 119.76 L 1309.54 118.48 L 1309.54 118.48 L 1285.53 118.80 L 1285.53 118.80 L 1268.62 120.31 L 1268.62 120.31 L 1254.42 121.01 L 1254.42 121.01 L 1295.12 184.61 L 1295.12 184.61 L 1304.33 196.84 L 1304.33 196.84 L 1308.71 202.10 L 1308.71 202.10 L 1315.09 206.98 L 1315.09 206.98 L 1326.73 215.43 L 1326.73 215.43 L 1339.65 227.49 L 1339.65 227.49 L 1345.70 236.70 L 1345.70 236.70 L 1353.29 243.29 L 1353.29 243.29 L 1360.95 252.65 L 1360.95 252.65 L 1368.93 263.08 L 1368.93 263.08 L 1303.83 241.12 L 1303.83 241.12 L 1295.12 277.78 L 1295.12 277.78 L 1292.68 284.20 L 1292.68 284.20 L 1290.46 288.82 L 1290.46 288.82 L 1287.86 296.49 L 1287.86 296.49 L 1289.52 305.93 L 1289.52 305.93 L 1415.85 301.87 L 1415.85 301.87 L 1440.75 300.47 L 1440.75 300.47 L 1465.65 297.54 L 1465.65 297.54 L 1491.54 296.29 L 1491.54 296.29 L 1500.80 297.13 L 1500.80 297.13 L 1512.06 297.28 L 1512.06 297.28 L 1530.64 299.57 L 1530.64 299.57 L 1539.96 302.59 L 1539.96 302.59 L 1559.25 310.55 L 1559.25 310.55 L 1572.01 317.21 L 1572.01 317.21 L 1580.55 326.36 L 1580.55 326.36 L 1585.82 334.49 L 1585.82 334.49 L 1589.48 347.95 L 1589.48 347.95 L 1588.92 355.59 L 1588.92 355.59 L 1590.20 368.43 L 1590.20 368.43 L 1595.02 380.81 L 1595.02 380.81 L 1602.06 387.78 L 1602.06 387.78 L 1612.27 397.37 L 1612.27 397.37 L 1622.75 407.48 L 1622.75 407.48 L 1627.91 412.16 L 1627.91 412.16 L 1598.46 362.88 L 1598.46 362.88 L 1657.35 390.86 L 1657.35 390.86 L 1666.56 400.01 L 1666.56 400.01 L 1675.60 405.10 L 1675.60 405.10 L 1688.46 413.08 L 1688.46 413.08 L 1696.00 423.81 L 1696.00 423.81 L 1700.22 429.01 L 1700.22 429.01 L 1701.44 437.32 L 1701.44 437.32 L 1779.52 426.97 L 1779.52 426.97 L 1796.60 426.25 L 1796.60 426.25 L 1813.73 423.81 L 1813.73 423.81 L 1824.16 422.96 L 1824.16 422.96 L 1849.23 420.70 L 1849.23 420.70 L 1862.53 420.55 L 1862.53 420.55 L 1887.88 417.04 L 1887.88 417.04 L 1901.41 415.53 L 1901.41 415.53 L 1910.78 414.01 L 1910.78 414.01 L 1927.03 408.70 L 1927.03 408.70 L 1940.95 406.32 L 1940.95 406.32 L 1951.15 405.88 L 1951.15 405.88 L 1974.55 406.66 L 1974.55 406.66 L 1993.85 410.99 L 1993.85 410.99 L 2014.87 412.04 L 2014.87 412.04 L 2027.96 410.96 L 2027.96 410.96 L 2044.76 411.57 L 2044.76 411.57 L 2069.60 415.79 L 2069.60 415.79 L 2083.41 418.81 L 2083.41 418.81 L 2102.43 421.51 L 2102.43 421.51 L 2112.64 422.85 L 2112.64 422.85 L 2123.28 424.21 L 2123.28 424.21 L 2135.82 425.37 L 2135.82 425.37 L 2068.33 445.83 L 2068.33 445.83 L 2058.51 447.92 L 2058.51 447.92 L 2037.94 450.42 L 2037.94 450.42 L 2023.80 454.46 L 2023.80 454.46 L 2008.77 456.23 L 2008.77 456.23 L 1994.63 458.70 L 1994.63 458.70 L 1970.23 461.34 L 1970.23 461.34 L 1959.86 462.53 L 1959.86 462.53 L 1943.94 464.60 L 1943.94 464.60 L 1933.79 465.59 L 1933.79 465.59 L 1918.82 466.28 L 1918.82 466.28 L 1900.52 467.30 L 1900.52 467.30 L 1876.07 470.35 L 1876.07 470.35 L 1850.33 470.50 L 1850.33 470.50 L 1839.41 470.41 L 1839.41 470.41 L 1825.66 469.16 L 1825.66 469.16 L 1800.87 465.44 L 1800.87 465.44 L 1786.84 464.86 L 1786.84 464.86 L 1766.15 467.36 L 1766.15 467.36 L 1757.56 468.81 L 1757.56 468.81 L 1740.04 472.50 L 1740.04 472.50 L 1718.41 475.03 L 1718.41 475.03 L 1701.88 476.60 L 1701.88 476.60 L 1681.42 478.78 L 1681.42 478.78 L 1664.73 483.02 L 1664.73 483.02 L 1642.60 487.40 L 1642.60 487.40 L 1632.29 489.06 L 1632.29 489.06 L 1616.76 489.84 L 1616.76 489.84 L 1606.61 491.56 L 1606.61 491.56 L 1596.57 494.20 L 1596.57 494.20 L 1584.26 497.31 L 1584.26 497.31 L 1566.80 505.48 L 1566.80 505.48 L 1553.49 512.45 L 1553.49 512.45 L 1541.95 521.66 L 1541.95 521.66 L 1537.24 529.24 L 1537.24 529.24 L 1530.97 542.14 L 1530.97 542.14 L 1522.88 553.88 L 1522.88 553.88 L 1606.00 527.56 L 1606.00 527.56 L 1617.70 521.43 L 1617.70 521.43 L 1640.27 515.06 L 1640.27 515.06 L 1661.29 510.39 L 1661.29 510.39 L 1681.97 505.65 L 1681.97 505.65 L 1701.72 499.03 L 1701.72 499.03 L 1718.52 495.25 L 1718.52 495.25 L 1731.83 492.29 L 1731.83 492.29 L 1748.74 488.86 L 1748.74 488.86 L 1772.59 483.57 L 1772.59 483.57 L 1782.13 482.96 L 1782.13 482.96 L 1793.44 481.25 L 1793.44 481.25 L 1813.51 479.21 L 1813.51 479.21 L 1832.76 477.29 L 1832.76 477.29 L 1841.41 475.64 L 1841.41 475.64 L 1855.44 469.68 L 1855.44 469.68 L 1864.25 466.57 L 1864.25 466.57 L 1873.90 462.04 L 1873.90 462.04 L 1846.06 516.92 L 1846.06 516.92 L 1846.23 525.99 L 1846.23 525.99 L 1846.79 531.68 L 1846.79 531.68 L 1839.13 544.87 L 1839.13 544.87 L 1734.43 545.31 L 1734.43 545.31 L 1718.91 547.34 L 1718.91 547.34 L 1698.17 553.82 L 1698.17 553.82 L 1683.69 562.10 L 1683.69 562.10 L 1670.22 567.42 L 1670.22 567.42 L 1657.96 576.77 L 1657.96 576.77 L 1642.77 587.18 L 1642.77 587.18 L 1628.74 596.09 L 1628.74 596.09 L 1620.14 600.07 L 1620.14 600.07 L 1609.11 605.68 L 1609.11 605.68 L 1599.07 613.85 L 1599.07 613.85 L 1522.10 588.54 L 1522.10 588.54 L 1513.12 586.91 L 1513.12 586.91 L 1489.66 581.07 L 1489.66 581.07 L 1471.97 580.00 L 1471.97 580.00 L 1449.18 576.48 L 1449.18 576.48 L 1434.98 573.98 L 1434.98 573.98 L 1409.69 570.32 L 1409.69 570.32 L 1390.89 564.14 L 1390.89 564.14 L 1377.42 557.37 L 1377.42 557.37 L 1364.55 553.50 L 1364.55 553.50 L 1351.63 549.58 L 1351.63 549.58 L 1334.72 539.99 L 1334.72 539.99 L 1321.13 530.43 L 1321.13 530.43 L 1307.88 575.87 L 1307.88 575.87 L 1301.67 585.52 L 1301.67 585.52 L 1285.97 525.03 L 1285.97 525.03 L 1287.41 517.13 L 1287.41 517.13 L 1375.75 559.02 L 1375.75 559.02 L 1385.62 562.07 L 1385.62 562.07 L 1398.66 564.60 L 1398.66 564.60 L 1416.57 569.74 L 1416.57 569.74 L 1429.82 575.76 L 1429.82 575.76 L 1445.85 585.37 L 1445.85 585.37 L 1455.94 596.09 L 1455.94 596.09 L 1469.25 607.13 L 1469.25 607.13 L 1474.02 613.12 L 1474.02 613.12 L 1476.74 623.99 L 1476.74 623.99 L 1479.84 633.84 L 1479.84 633.84 L 1393.28 645.95 L 1393.28 645.95 L 1371.76 650.66 L 1371.76 650.66 L 1356.34 651.99 L 1356.34 651.99 L 1334.94 653.62 L 1334.94 653.62 L 1316.25 652.63 L 1316.25 652.63 L 1290.80 654.03 L 1290.80 654.03 L 1269.72 658.82 L 1269.72 658.82 L 1257.91 659.66 L 1257.91 659.66 L 1233.85 659.87 L 1233.85 659.87 L 1219.59 661.61 L 1219.59 661.61 L 1196.97 667.51 L 1196.97 667.51 L 1182.22 669.43 L 1182.22 669.43 L 1164.64 674.22 L 1164.64 674.22 L 1144.95 682.09 L 1144.95 682.09 L 1128.09 686.60 L 1128.09 686.60 L 1113.56 690.87 L 1113.56 690.87 L 1098.76 696.82 L 1098.76 696.82 L 1078.35 703.24 L 1078.35 703.24 L 1060.44 707.11 L 1060.44 707.11 L 1045.52 710.97 L 1045.52 710.97 L 1070.81 778.12 L 1070.81 778.12 L 1077.69 786.75 L 1077.69 786.75 L 1120.05 743.95 L 1120.05 743.95 L 1138.02 733.98 L 1138.02 733.98 L 1144.90 781.86 L 1144.90 781.86 L 1234.29 777.65 L 1234.29 777.65 L 1254.42 774.89 L 1254.42 774.89 L 1264.07 772.07 L 1264.07 772.07 L 1280.59 763.27 L 1280.59 763.27 L 1296.51 752.52 L 1296.51 752.52 L 1304.99 748.95 L 1304.99 748.95 L 1326.45 744.24 L 1326.45 744.24 L 1335.44 740.32 L 1335.44 740.32 L 1355.29 732.50 L 1355.29 732.50 L 1368.10 726.23 L 1368.10 726.23 L 1373.48 721.81 L 1373.48 721.81 L 1388.23 715.27 L 1388.23 715.27 L 1399.04 713.15 L 1399.04 713.15 L 1418.34 712.31 L 1418.34 712.31 L 1427.83 710.83 L 1427.83 710.83 L 1446.46 705.71 L 1446.46 705.71 L 1470.14 701.73 L 1470.14 701.73 L 1490.54 698.57 L 1490.54 698.57 L 1509.95 696.04 L 1509.95 696.04 L 1532.36 694.38 L 1532.36 694.38 L 1557.92 694.15 L 1557.92 694.15 L 1574.78 696.27 L 1574.78 696.27 L 1588.70 696.27 L 1588.70 696.27 L 1606.67 694.67 L 1606.67 694.67 L 1622.92 695.87 L 1622.92 695.87 L 1635.73 694.64 L 1635.73 694.64 L 1646.37 693.25 L 1646.37 693.25 L 1670.88 693.13 L 1670.88 693.13 L 1691.07 692.61 L 1691.07 692.61 L 1711.64 689.82 L 1711.64 689.82 L 1728.78 686.13 L 1728.78 686.13 L 1652.42 672.33 L 1652.42 672.33 L 1631.84 664.98 L 1631.84 664.98 L 1623.75 659.90 L 1623.75 659.90 L 1615.21 651.59 L 1615.21 651.59 L 1600.62 643.28 L 1600.62 643.28 L 1583.65 637.38 L 1583.65 637.38 L 1572.73 633.78 L 1572.73 633.78 L 1548.61 630.87 L 1548.61 630.87 L 1522.99 632.41 L 1522.99 632.41 L 1496.64 632.30 L 1496.64 632.30 L 1476.51 630.41 L 1476.51 630.41 L 1464.76 628.02 L 1464.76 628.02 L 1451.78 622.33 L 1451.78 622.33 L 1436.48 618.18 L 1436.48 618.18 L 1414.57 615.30 L 1414.57 615.30 L 1391.17 610.51 L 1391.17 610.51 L 1380.19 606.12 L 1380.19 606.12 L 1361.39 602.75 L 1361.39 602.75 L 1335.49 599.93 L 1335.49 599.93 L 1321.13 600.54 L 1321.13 600.54 L 1297.12 597.11 L 1297.12 597.11 L 1279.60 592.72 L 1279.60 592.72 L 1261.57 585.64 L 1261.57 585.64 L 1245.82 580.70 L 1245.82 580.70 L 1223.14 575.67 L 1223.14 575.67 L 1337.82 586.33 L 1337.82 586.33 L 1357.68 586.54 L 1357.68 586.54 L 1375.64 588.34 L 1375.64 588.34 L 1397.33 592.00 L 1397.33 592.00 L 1412.46 595.02 L 1412.46 595.02 L 1430.04 597.20 L 1430.04 597.20 L 1438.81 598.77 L 1438.81 598.77 L 1461.38 602.49 L 1461.38 602.49 L 1482.00 606.32 L 1482.00 606.32 L 1505.57 612.31 L 1505.57 612.31 L 1518.27 613.85 L 1518.27 613.85 L 1536.30 613.27 L 1536.30 613.27 L 1557.31 612.57 L 1557.31 612.57 L 1579.66 614.22 L 1579.66 614.22 L 1600.46 616.35 L 1600.46 616.35 L 1612.32 618.90 L 1612.32 618.90 L 1631.73 621.95 L 1631.73 621.95 L 1649.64 625.29 L 1649.64 625.29 L 1658.35 626.63 L 1658.35 626.63 L 1675.49 628.26 L 1675.49 628.26 L 1700.16 633.40 L 1700.16 633.40 L 1714.91 639.62 L 1714.91 639.62 L 1732.27 647.00 L 1732.27 647.00 L 1752.24 651.06 L 1752.24 651.06 L 1769.09 652.60 L 1769.09 652.60 L 1792.05 650.95 L 1792.05 650.95 L 1804.42 647.81 L 1804.42 647.81 L 1815.68 645.54 L 1815.68 645.54 L 1836.97 641.74 L 1836.97 641.74 L 1846.79 640.14 L 1846.79 640.14 L 1868.47 636.07 L 1868.47 636.07 L 1882.83 633.54 L 1882.83 633.54 L 1893.53 631.57 L 1893.53 631.57 L 1918.27 629.04 L 1918.27 629.04 L 1934.74 626.89 L 1934.74 626.89 L 1944.72 627.30 L 1944.72 627.30 L 1953.65 628.87 L 1953.65 628.87 L 1965.29 631.83 L 1965.29 631.83 L 1975.00 636.89 L 1975.00 636.89 L 1992.35 643.37 L 1992.35 643.37 L 2015.26 648.39 L 2015.26 648.39 L 1952.09 681.98 L 1952.09 681.98 L 1934.13 686.48 L 1934.13 686.48 L 1924.53 687.32 L 1924.53 687.32 L 1902.91 693.77 L 1902.91 693.77 L 2019.08 724.92 L 2019.08 724.92 L 2043.43 729.95 L 2043.43 729.95 L 2053.08 730.26 L 2053.08 730.26 L 2073.54 730.58 L 2073.54 730.58 L 2089.73 663.82 L 2089.73 663.82 L 2096.05 656.85 L 2096.05 656.85 L 2104.32 652.31 L 2104.32 652.31 L 2117.57 646.56 L 2117.57 646.56 L 2107.42 690.72 L 2107.42 690.72 L 2103.37 699.70 L 2103.37 699.70 L 2094.72 710.13 L 2094.72 710.13 L 2089.84 715.97 L 2089.84 715.97 L 2085.63 724.05 L 2085.63 724.05 L 2082.86 729.63 L 2082.86 729.63 L 2079.47 742.55 L 2079.47 742.55 L 2081.86 754.47 L 2081.86 754.47 L 2082.91 762.08 L 2082.91 762.08 L 2084.46 768.59 L 2084.46 768.59 L 2086.57 774.22 L 2086.57 774.22 L 2091.45 781.05 L 2091.45 781.05 L 2102.88 788.40 L 2102.88 788.40 L 2117.96 798.92 L 2117.96 798.92 L 2129.77 804.99 L 2129.77 804.99 L 2147.57 811.53 L 2147.57 811.53 L 2159.88 816.00 L 2159.88 816.00 L 2176.74 820.48 L 2176.74 820.48 L 2184.23 867.54 L 2184.23 867.54 L 2188.83 876.00 L 2188.83 876.00 L 2195.04 888.72 L 2195.04 888.72 L 2195.37 894.45 L 2195.37 894.45 L 2189.33 906.45 L 2189.33 906.45 L 2178.02 915.57 L 2178.02 915.57 L 2173.64 921.96 L 2173.64 921.96 L 2160.66 931.43 L 2160.66 931.43 L 2151.45 939.28 L 2151.45 939.28 L 2136.87 945.64 L 2136.87 945.64 L 2121.23 955.75 L 2121.23 955.75 L 2112.52 960.63 L 2112.52 960.63 L 2101.10 967.26 L 2101.10 967.26 L 2077.86 974.08 L 2077.86 974.08 L 2061.67 983.35 L 2061.67 983.35 L 2047.48 990.79 L 2047.48 990.79 L 2037.60 999.16 L 2037.60 999.16 L 2030.51 1004.50 L 2030.51 1004.50 L 2022.02 1013.77 L 2022.02 1013.77 L 2015.87 1021.15 L 2015.87 1021.15 L 2008.49 1032.74 L 2008.49 1032.74 L 2008.71 1042.65 L 2008.71 1042.65 L 2011.43 1051.66 L 2011.43 1051.66 L 2010.49 1059.21 L 2010.49 1059.21 L 2013.09 1068.80 L 2013.09 1068.80 L 2009.43 1080.33 L 2009.43 1080.33 L 2013.81 1093.38 L 2013.81 1093.38 L 2011.87 1106.63 L 2011.87 1106.63 L 2008.71 1116.10 L 2008.71 1116.10 L 1999.51 1125.77 L 1999.51 1125.77 L 1996.57 1135.16 L 1996.57 1135.16 L 1990.36 1142.71 L 1990.36 1142.71 L 1982.59 1147.91 L 1982.59 1147.91 L 1885.60 1115.58 L 1885.60 1115.58 L 1871.68 1111.28 L 1871.68 1111.28 L 1864.09 1108.57 L 1864.09 1108.57 L 1847.01 1098.09 L 1847.01 1098.09 L 1837.08 1088.29 L 1837.08 1088.29 L 1821.78 1077.81 L 1821.78 1077.81 L 1814.57 1074.76 L 1814.57 1074.76 L 1792.55 1070.69 L 1792.55 1070.69 L 1779.63 1069.99 L 1779.63 1069.99 L 1760.55 1072.00 L 1760.55 1072.00 L 1738.82 1074.73 L 1738.82 1074.73 L 1713.69 1076.24 L 1713.69 1076.24 L 1695.12 1080.91 L 1695.12 1080.91 L 1595.52 1053.17 L 1595.52 1053.17 L 1573.39 1051.34 L 1573.39 1051.34 L 1555.43 1049.45 L 1555.43 1049.45 L 1545.33 1048.96 L 1545.33 1048.96 L 1530.81 1049.42 L 1530.81 1049.42 L 1512.39 1048.90 L 1512.39 1048.90 L 1500.69 1049.48 L 1500.69 1049.48 L 1485.72 1051.74 L 1485.72 1051.74 L 1463.43 1054.77 L 1463.43 1054.77 L 1447.18 1055.43 L 1447.18 1055.43 L 1436.75 1056.57 L 1436.75 1056.57 L 1420.39 1058.72 L 1420.39 1058.72 L 1425.77 1007.64 L 1425.77 1007.64 L 1420.06 997.27 L 1420.06 997.27 L 1419.84 990.96 L 1419.84 990.96 L 1420.67 984.98 L 1420.67 984.98 L 1418.40 979.37 L 1418.40 979.37 L 1362.33 1007.90 L 1362.33 1007.90 L 1352.41 1018.39 L 1352.41 1018.39 L 1341.43 1028.56 L 1341.43 1028.56 L 1330.78 1040.50 L 1330.78 1040.50 L 1316.97 1048.52 L 1316.97 1048.52 L 1305.22 1054.45 L 1305.22 1054.45 L 1414.35 1071.33 L 1414.35 1071.33 L 1430.32 1073.68 L 1430.32 1073.68 L 1453.33 1077.78 L 1453.33 1077.78 L 1463.87 1080.28 L 1463.87 1080.28 L 1481.51 1084.05 L 1481.51 1084.05 L 1491.32 1087.83 L 1491.32 1087.83 L 1506.90 1090.47 L 1506.90 1090.47 L 1527.70 1090.21 L 1527.70 1090.21 L 1537.57 1091.00 L 1537.57 1091.00 L 1550.99 1090.94 L 1550.99 1090.94 L 1566.19 1092.91 L 1566.19 1092.91 L 1579.83 1094.25 L 1579.83 1094.25 L 1577.33 1032.39 L 1577.33 1032.39 L 1575.95 1023.39 L 1575.95 1023.39 L 1578.33 1016.73 L 1578.33 1016.73 L 1586.70 1009.12 L 1586.70 1009.12 L 1590.75 997.41 L 1590.75 997.41 L 1596.57 984.69 L 1596.57 984.69 L 1599.24 973.07 L 1599.24 973.07 L 1597.57 962.78 L 1597.57 962.78 L 1593.30 957.52 L 1593.30 957.52 L 1580.38 949.39 L 1580.38 949.39 L 1562.03 942.65 L 1562.03 942.65 L 1537.63 937.62 L 1537.63 937.62 L 1523.10 934.43 L 1523.10 934.43 L 1543.84 978.97 L 1543.84 978.97 L 1548.27 985.71 L 1548.27 985.71 L 1565.19 924.69 L 1565.19 924.69 L 1567.68 918.01 L 1567.68 918.01 L 1568.13 910.92 L 1568.13 910.92 L 1568.68 898.78 L 1568.68 898.78 L 1567.24 885.44 L 1567.24 885.44 L 1564.19 875.68 L 1564.19 875.68 L 1565.19 866.29 L 1565.19 866.29 L 1641.22 920.77 L 1641.22 920.77 L 1646.87 928.12 L 1646.87 928.12 L 1655.47 941.11 L 1655.47 941.11 L 1655.86 954.07 L 1655.86 954.07 L 1658.57 964.76 L 1658.57 964.76 L 1655.30 972.81 L 1655.30 972.81 L 1656.74 978.97 L 1656.74 978.97 L 1655.25 984.37 L 1655.25 984.37 L 1657.63 997.07 L 1657.63 997.07 L 1662.34 1006.25 L 1662.34 1006.25 L 1668.61 1012.14 L 1668.61 1012.14 L 1675.60 1015.63 L 1675.60 1015.63 L 1587.42 1019.79 L 1587.42 1019.79 L 1575.28 1018.83 L 1575.28 1018.83 L 1567.13 1016.62 L 1567.13 1016.62 L 1547.33 1007.79 L 1547.33 1007.79 L 1541.12 1002.73 L 1541.12 1002.73 L 1522.27 995.09 L 1522.27 995.09 L 1513.00 991.89 L 1513.00 991.89 L 1504.74 987.51 L 1504.74 987.51 L 1488.05 978.82 L 1488.05 978.82 L 1472.58 968.71 L 1472.58 968.71 L 1468.70 963.22 L 1468.70 963.22 L 1468.25 954.47 L 1468.25 954.47 L 1460.10 941.83 L 1460.10 941.83 L 1456.83 937.33 L 1456.83 937.33 L 1456.38 928.56 L 1456.38 928.56 L 1462.10 918.94 L 1462.10 918.94 L 1470.36 909.67 L 1470.36 909.67 L 1477.51 901.65 L 1477.51 901.65 L 1491.49 891.54 L 1491.49 891.54 L 1507.18 882.45 L 1507.18 882.45 L 1518.00 873.24 L 1518.00 873.24 L 1524.65 867.11 L 1524.65 867.11 L 1533.69 858.42 L 1533.69 858.42 L 1539.18 850.95 L 1539.18 850.95 L 1545.39 837.53 L 1545.39 837.53 L 1547.05 826.43 L 1547.05 826.43 L 1555.76 813.82 L 1555.76 813.82 L 1559.48 806.56 L 1559.48 806.56 L 1560.81 795.66 L 1560.81 795.66 L 1568.74 782.71 L 1568.74 782.71 L 1570.18 771.81 L 1570.18 771.81 L 1569.12 766.47 L 1569.12 766.47 L 1565.74 761.50 L 1565.74 761.50 L 1560.53 757.17 L 1560.53 757.17 L 1547.61 750.25 L 1547.61 750.25 L 1536.96 743.60 L 1536.96 743.60 L 1505.46 776.20 L 1505.46 776.20 L 1562.03 728.67 L 1562.03 728.67 L 1586.98 780.88 L 1586.98 780.88 L 1599.79 793.08 L 1599.79 793.08 L 1603.84 803.36 L 1603.84 803.36 L 1603.78 808.48 L 1603.78 808.48 L 1602.34 816.87 L 1602.34 816.87 L 1600.79 821.70 L 1600.79 821.70 L 1575.11 758.94 L 1575.11 758.94 L 1566.46 747.49 L 1566.46 747.49 L 1563.63 738.78 L 1563.63 738.78 L 1559.31 734.22 L 1559.31 734.22 L 1544.50 726.17 L 1544.50 726.17 L 1530.92 720.10 L 1530.92 720.10 L 1523.71 715.13 L 1523.71 715.13 L 1516.78 709.52 L 1516.78 709.52 L 1509.23 705.31 L 1509.23 705.31 L 1496.87 694.50 L 1496.87 694.50 L 1488.22 689.56 L 1488.22 689.56 L 1472.02 683.49 L 1472.02 683.49 L 1459.10 678.43 L 1459.10 678.43 L 1452.72 673.61 L 1452.72 673.61 L 1448.79 668.47 L 1448.79 668.47 L 1564.08 668.06 L 1564.08 668.06 L 1575.45 668.70 L 1575.45 668.70 L 1585.76 670.62 L 1585.76 670.62 L 1596.80 674.57 L 1596.80 674.57 L 1504.85 707.11 L 1504.85 707.11 L 1420.84 690.66 L 1420.84 690.66 L 1405.14 688.31 L 1405.14 688.31 L 1406.97 634.10 L 1406.97 634.10 L 1519.88 654.81 L 1519.88 654.81 L 1397.49 643.77 L 1397.49 643.77 L 1381.19 644.29 L 1381.19 644.29 L 1361.89 647.87 L 1361.89 647.87 L 1353.13 650.05 L 1353.13 650.05 L 1342.70 653.88 L 1342.70 653.88 L 1336.44 657.25 L 1336.44 657.25 L 1321.96 666.75 L 1321.96 666.75 L 1311.09 675.12 L 1311.09 675.12 L 1299.17 679.80 L 1299.17 679.80 L 1285.53 685.12 L 1285.53 685.12 L 1275.05 686.80 L 1275.05 686.80 L 1357.45 695.28 L 1357.45 695.28 L 1376.53 700.57 L 1376.53 700.57 L 1326.29 737.53 L 1326.29 737.53 L 1314.25 744.82 L 1314.25 744.82 L 1306.66 747.44 L 1306.66 747.44 L 1293.29 756.15 L 1293.29 756.15 L 1284.59 763.62 L 1284.59 763.62 L 1279.48 768.09 L 1279.48 768.09 L 1262.07 778.17 L 1262.07 778.17 L 1249.04 784.94 L 1249.04 784.94 L 1238.17 787.65 L 1238.17 787.65 L 1223.86 794.50 L 1223.86 794.50 L 1210.44 800.23 L 1210.44 800.23 L 1200.85 806.65 L 1200.85 806.65 L 1189.04 816.35 L 1189.04 816.35 L 1170.52 826.11 L 1170.52 826.11 L 1155.88 829.89 L 1155.88 829.89 L 1145.45 833.20 L 1145.45 833.20 L 1137.74 837.82 L 1137.74 837.82 L 1128.26 841.25 L 1128.26 841.25 L 1111.51 849.50 L 1111.51 849.50 L 1093.60 857.96 L 1093.60 857.96 L 1078.13 867.02 L 1078.13 867.02 L 1071.25 872.54 L 1071.25 872.54 L 1055.17 838.66 L 1055.17 838.66 L 1045.69 831.23 L 1045.69 831.23 L 1033.32 825.42 L 1033.32 825.42 L 1020.90 814.61 L 1020.90 814.61 L 1010.92 804.15 L 1010.92 804.15 L 1003.38 800.31 L 1003.38 800.31 L 994.34 796.62 L 994.34 796.62 L 978.59 786.02 L 978.59 786.02 L 962.84 778.23 L 962.84 778.23 L 953.58 772.02 L 953.58 772.02 L 947.42 765.07 L 947.42 765.07 L 935.72 758.45 L 935.72 758.45 L 923.63 748.63 L 923.63 748.63 L 910.10 738.14 L 910.10 738.14 L 904.11 731.80 L 904.11 731.80 L 896.40 726.23 L 896.40 726.23 L 959.57 697.81 L 959.57 697.81 L 968.16 695.40 L 968.16 695.40 L 980.92 690.46 L 980.92 690.46 L 1000.71 686.45 L 1000.71 686.45 L 1010.97 684.59 L 1010.97 684.59 L 1034.04 678.72 L 1034.04 678.72 L 1054.62 671.63 L 1054.62 671.63 L 1071.97 662.40 L 1071.97 662.40 L 1083.84 655.28 L 1083.84 655.28 L 1093.77 649.61 L 1093.77 649.61 L 1107.96 639.65 L 1107.96 639.65 L 1113.12 635.43 L 1113.12 635.43 L 1125.71 629.10 L 1125.71 629.10 L 1146.56 623.46 L 1146.56 623.46 L 1156.93 622.16 L 1156.93 622.16 L 1177.28 618.06 L 1177.28 618.06 L 1192.25 614.66 L 1192.25 614.66 L 1203.07 613.56 L 1203.07 613.56 L 1220.48 610.85 L 1220.48 610.85 L 1237.67 611.06 L 1237.67 611.06 L 1258.91 610.71 L 1258.91 610.71 L 1274.49 608.41 L 1274.49 608.41 L 1288.63 608.04 L 1288.63 608.04 L 1311.87 607.31 L 1311.87 607.31 L 1322.46 607.05 L 1322.46 607.05 L 1331.83 606.06 L 1331.83 606.06 L 1353.07 599.38 L 1353.07 599.38 L 1365.27 593.01 L 1365.27 593.01 L 1379.64 589.41 L 1379.64 589.41 L 1404.04 588.13 L 1404.04 588.13 L 1415.68 589.18 L 1415.68 589.18 L 1439.14 594.26 L 1439.14 594.26 L 1459.88 600.89 L 1459.88 600.89 L 1395.99 643.22 L 1395.99 643.22 L 1381.19 650.11 L 1381.19 650.11 L 1416.96 679.77 L 1416.96 679.77 L 1419.67 685.06 L 1419.67 685.06 L 1428.71 692.20 L 1428.71 692.20 L 1439.42 698.83 L 1439.42 698.83 L 1456.05 708.62 L 1456.05 708.62 L 1463.98 716.78 L 1463.98 716.78 L 1475.18 723.73 L 1475.18 723.73 L 1489.71 732.18 L 1489.71 732.18 L 1507.85 740.96 L 1507.85 740.96 L 1515.39 744.85 L 1515.39 744.85 L 1523.10 751.47 L 1523.10 751.47 L 1527.20 760.63 L 1527.20 760.63 L 1618.92 756.27 L 1618.92 756.27 L 1642.71 756.41 L 1642.71 756.41 L 1657.41 755.74 L 1657.41 755.74 L 1680.20 756.59 L 1680.20 756.59 L 1695.84 755.48 L 1695.84 755.48 L 1709.48 756.88 L 1709.48 756.88 L 1724.51 757.69 L 1724.51 757.69 L 1736.15 758.33 L 1736.15 758.33 L 1762.66 758.56 L 1762.66 758.56 L 1784.90 760.19 L 1784.90 760.19 L 1801.42 760.86 L 1801.42 760.86 L 1811.79 760.63 L 1811.79 760.63 L 1835.75 760.86 L 1835.75 760.86 L 1782.40 794.01 L 1782.40 794.01 L 1771.37 798.02 L 1771.37 798.02 L 1749.35 801.04 L 1749.35 801.04 L 1740.31 800.69 L 1740.31 800.69 L 1714.53 800.66 L 1714.53 800.66 L 1715.47 869.26 L 1715.47 869.26 L 1714.03 883.09 L 1714.03 883.09 L 1711.14 890.47 L 1711.14 890.47 L 1710.59 902.00 L 1710.59 902.00 L 1713.69 907.03 L 1713.69 907.03 L 1715.52 912.78 L 1715.52 912.78 L 1721.07 920.48 L 1721.07 920.48 L 1728.78 927.57 L 1728.78 927.57 L 1731.11 934.16 L 1731.11 934.16 L 1737.15 940.03 L 1737.15 940.03 L 1751.96 948.05 L 1751.96 948.05 L 1770.59 954.94 L 1770.59 954.94 L 1786.45 961.79 L 1786.45 961.79 L 1795.55 966.07 L 1795.55 966.07 L 1818.06 971.85 L 1818.06 971.85 L 1829.87 974.49 L 1829.87 974.49 L 1849.45 979.20 L 1849.45 979.20 L 1866.25 986.66 L 1866.25 986.66 L 1881.22 993.67 L 1881.22 993.67 L 1898.19 1000.15 L 1898.19 1000.15 L 1909.34 1006.36 L 1909.34 1006.36 L 1924.31 1010.78 L 1924.31 1010.78 L 1949.82 1014.64 L 1949.82 1014.64 L 1971.56 1020.19 L 1971.56 1020.19 L 1989.91 1026.82 L 1989.91 1026.82 L 2008.71 1031.09 L 2008.71 1031.09 L 2022.80 1037.13 L 2022.80 1037.13 L 2033.50 1042.77 L 2033.50 1042.77 L 2056.79 1048.58 L 2056.79 1048.58 L 2075.31 1054.13 L 2075.31 1054.13 L 2094.28 1058.69 L 2094.28 1058.69 L 2118.01 1064.96 L 2118.01 1064.96 L 2132.38 1071.88 L 2132.38 1071.88 L 2142.86 1076.09 L 2142.86 1076.09 L 2155.06 1083.99 L 2155.06 1083.99 L 2171.97 1093.38 L 2171.97 1093.38 L 2180.23 1099.83 L 2180.23 1099.83 L 2100.99 1109.91 L 2100.99 1109.91 L 2085.91 1114.41 L 2085.91 1114.41 L 2068.22 1117.93 L 2068.22 1117.93 L 2046.81 1125.02 L 2046.81 1125.02 L 2033.56 1126.96 L 2033.56 1126.96 L 2020.19 1130.74 L 2020.19 1130.74 L 2132.54 1152.42 L 2132.54 1152.42 L 2155.89 1158.23 L 2155.89 1158.23 L 2177.91 1161.22 L 2177.91 1161.22 L 2201.58 1165.55 L 2201.58 1165.55 L 2212.68 1168.98 L 2212.68 1168.98 L 2220.22 1172.70 L 2220.22 1172.70 L 2237.24 1178.27 L 2237.24 1178.27 L 2261.92 1182.92 L 2261.92 1182.92 L 2283.71 1183.30 L 2283.71 1183.30 L 2297.47 1185.13 L 2297.47 1185.13 L 2321.59 1187.98 L 2321.59 1187.98 L 2338.50 1188.70 L 2338.50 1188.70 L 2361.74 1187.31 L 2361.74 1187.31 L 2380.20 1182.89 L 2380.20 1182.89 L 2389.24 1178.91 L 2389.24 1178.91 L 2402.44 1168.08 L 2402.44 1168.08 L 2408.49 1163.11 L 2408.49 1163.11 L 2417.97 1155.93 L 2417.97 1155.93 L 2437.27 1147.56 L 2437.27 1147.56 L 2448.41 1140.97 L 2448.41 1140.97 L 2467.66 1134.66 L 2467.66 1134.66 L 2487.56 1127.60 L 2487.56 1127.60 L 2498.49 1122.69 L 2498.49 1122.69 L 2506.64 1117.12 L 2506.64 1117.12 L 2527.77 1109.01 L 2527.77 1109.01 L 2539.52 1105.90 L 2539.52 1105.90 L 2480.13 1083.94 L 2480.13 1083.94 L 2466.93 1075.86 L 2466.93 1075.86 L 2415.86 1116.71 L 2415.86 1116.71 L 2407.76 1124.90 L 2407.76 1124.90 L 2403.83 1129.84 L 2403.83 1129.84 L 2390.41 1139.14 L 2390.41 1139.14 L 2370.94 1146.14 L 2370.94 1146.14 L 2356.91 1155.09 L 2356.91 1155.09 L 2349.70 1159.74 L 2349.70 1159.74 L 2422.24 1156.19 L 2422.24 1156.19 L 2442.65 1151.66 L 2442.65 1151.66 L 2463.05 1144.22 L 2463.05 1144.22 L 2473.31 1138.85 L 2473.31 1138.85 L 2488.51 1131.76 L 2488.51 1131.76 L 2504.98 1126.33 L 2504.98 1126.33 L 2525.77 1122.81 L 2525.77 1122.81 L 2540.69 1123.04 L 2540.69 1123.04 L 2472.37 1108.95 L 2472.37 1108.95 L 2430.28 1146.69 L 2430.28 1146.69 L 2425.73 1157.18 L 2425.73 1157.18 L 2425.45 1164.18 L 2425.45 1164.18 L 2424.01 1169.30 L 2424.01 1169.30 L 2420.41 1176.01 L 2420.41 1176.01 L 2417.64 1186.64 L 2417.64 1186.64 L 2413.42 1197.77 L 2413.42 1197.77 L 2409.15 1203.75 L 2409.15 1203.75 L 2401.39 1211.83 L 2401.39 1211.83 L 2399.28 1217.85 L 2399.28 1217.85 L 2396.73 1225.08 L 2396.73 1225.08 L 2388.58 1235.89 L 2388.58 1235.89 L 2387.86 1247.89 L 2387.86 1247.89 L 2386.36 1258.29 L 2386.36 1258.29 L 2391.07 1268.72 L 2391.07 1268.72 L 2394.12 1274.44 L 2394.12 1274.44 L 2400.78 1284.12 L 2400.78 1284.12 L 2406.16 1294.02 L 2406.16 1294.02 L 2406.49 1302.71 L 2406.49 1302.71 L 2409.48 1313.14 L 2409.48 1313.14 L 2410.04 1318.11 L 2410.04 1318.11 L 2415.92 1327.03 L 2415.92 1327.03 L 2422.79 1333.83 L 2422.79 1333.83 L 2429.50 1344.23 L 2429.50 1344.23 L 2443.98 1354.25 L 2443.98 1354.25 L 2450.46 1357.91 L 2450.46 1357.91 L 2465.88 1364.31 L 2465.88 1364.31 L 2484.74 1371.54 L 2484.74 1371.54 L 2499.99 1375.29 L 2499.99 1375.29 L 2522.89 1381.21 L 2522.89 1381.21 L 2533.81 1381.97 L 2533.81 1381.97 L 2449.97 1406.58 L 2449.97 1406.58 L 2435.88 1410.41 L 2435.88 1410.41 L 2423.18 1415.12 L 2423.18 1415.12 L 2504.92 1403.73 L 2504.92 1403.73 L 2520.67 1399.02 L 2520.67 1399.02 L 2509.41 1463.20 L 2509.41 1463.20 L 2510.36 1471.95 L 2510.36 1471.95 L 2510.91 1481.45 L 2510.91 1481.45 L 2511.24 1492.55 L 2511.24 1492.55 L 2507.47 1498.91 L 2507.47 1498.91 L 2502.70 1503.12 L 2502.70 1503.12 L 2492.89 1515.01 L 2492.89 1515.01 L 2488.56 1520.47 L 2488.56 1520.47 L 2483.24 1525.87 L 2483.24 1525.87 L 2388.02 1527.67 L 2388.02 1527.67 L 2507.42 1502.34 L 2507.42 1502.34 L 2522.67 1501.90 L 2522.67 1501.90 L 2538.97 1500.16 L 2538.97 1500.16 L 2548.29 1498.48 L 2548.29 1498.48 L 2574.63 1498.39 L 2574.63 1498.39 L 2595.59 1494.87 L 2595.59 1494.87 L 2617.60 1490.83 L 2617.60 1490.83 L 2632.19 1485.31 L 2632.19 1485.31 L 2653.37 1528.46 L 2653.37 1528.46 L 2657.09 1535.87 L 2657.09 1535.87 L 2656.70 1541.45 L 2656.70 1541.45 L 2657.64 1548.77 L 2657.64 1548.77 L 2659.81 1562.39 L 2659.81 1562.39 L 2664.08 1574.89 L 2664.08 1574.89 L 2667.18 1584.07 L 2667.18 1584.07 L 2666.41 1596.53 L 2666.41 1596.53 L 2672.62 1609.84 L 2672.62 1609.84 L 2679.94 1621.14 L 2679.94 1621.14 L 2690.53 1628.40 L 2690.53 1628.40 L 2700.79 1635.99 L 2700.79 1635.99 L 2709.44 1641.13 L 2709.44 1641.13 L 2730.12 1647.23 L 2730.12 1647.23 L 2747.37 1653.33 L 2747.37 1653.33 L 2764.12 1662.48 L 2764.12 1662.48 L 2771.55 1665.97 L 2771.55 1665.97 L 2783.14 1672.22 L 2783.14 1672.22 L 2795.50 1682.24 L 2795.50 1682.24 L 2810.53 1692.09 L 2810.53 1692.09 L 2820.01 1697.23 L 2820.01 1697.23 L 2827.22 1704.84 L 2827.22 1704.84 L 2830.77 1709.75 L 2830.77 1709.75 L 2835.10 1715.04 L 2835.10 1715.04 L 2847.30 1725.56 L 2847.30 1725.56 L 2860.05 1733.61 L 2860.05 1733.61 L 2875.25 1743.75 L 2875.25 1743.75 L 2882.51 1747.76 L 2882.51 1747.76 L 2891.99 1752.67 L 2891.99 1752.67 L 2903.58 1756.18 L 2903.58 1756.18 L 2923.55 1762.55 L 2923.55 1762.55 L 2933.81 1767.14 L 2933.81 1767.14 L 2950.00 1777.48 L 2950.00 1777.48 L 2881.18 1775.88 L 2881.18 1775.88 L 2857.72 1771.15 L 2857.72 1771.15 L 2837.87 1765.94 L 2837.87 1765.94 L 2829.72 1762.89 L 2829.72 1762.89 L 2806.48 1757.26 L 2806.48 1757.26 L 2792.90 1756.15 L 2792.90 1756.15 L 2776.15 1757.81 L 2776.15 1757.81 L 2760.57 1757.20 L 2760.57 1757.20 L 2739.77 1756.07 L 2739.77 1756.07 L 2728.02 1755.72 L 2728.02 1755.72 L 2706.78 1757.00 L 2706.78 1757.00 L 2689.31 1759.96 L 2689.31 1759.96 L 2675.22 1762.14 L 2675.22 1762.14 L 2663.74 1765.92 L 2663.74 1765.92 L 2649.49 1770.33 L 2649.49 1770.33 L 2639.73 1771.35 L 2639.73 1771.35 L 2614.44 1774.95 L 2614.44 1774.95 L 2592.15 1777.74 L 2592.15 1777.74 L 2569.75 1780.33 L 2569.75 1780.33 L 2554.55 1780.33 L 2554.55 1780.33 L 2539.36 1781.08 L 2539.36 1781.08 L 2516.68 1778.32 L 2516.68 1778.32 L 2496.38 1777.86 L 2496.38 1777.86 L 2480.58 1775.30 L 2480.58 1775.30 L 2457.56 1772.95 L 2457.56 1772.95 L 2447.64 1772.25 L 2447.64 1772.25 L 2435.77 1773.12 L 2435.77 1773.12 L 2417.03 1776.08 L 2417.03 1776.08 L 2402.27 1778.35 L 2402.27 1778.35 L 2388.69 1782.59 L 2388.69 1782.59 L 2372.50 1788.23 L 2372.50 1788.23 L 2362.01 1793.23 L 2362.01 1793.23 L 2347.26 1796.48 L 2347.26 1796.48 L 2324.64 1797.26 L 2324.64 1797.26 L 2299.13 1798.40 L 2299.13 1798.40 L 2288.70 1797.06 L 2288.70 1797.06 L 2262.64 1797.12 L 2262.64 1797.12 L 2244.34 1795.03 L 2244.34 1795.03 L 2232.20 1795.26 L 2232.20 1795.26 L 2221.66 1795.67 L 2221.66 1795.67 L 2206.80 1796.04 L 2206.80 1796.04 L 2186.22 1796.89 L 2186.22 1796.89 L 2175.80 1797.93 L 2175.80 1797.93 L 2153.73 1799.27 L 2153.73 1799.27 L 2134.76 1803.66 L 2134.76 1803.66 L 2124.95 1805.46 L 2124.95 1805.46 L 2106.76 1806.56 L 2106.76 1806.56 L 2094.56 1805.20 L 2094.56 1805.20 L 2077.75 1803.54 L 2077.75 1803.54 L 2061.89 1803.57 L 2061.89 1803.57 L 2047.14 1806.18 L 2047.14 1806.18 L 2027.90 1809.99 L 2027.90 1809.99 L 2019.14 1813.88 L 2019.14 1813.88 L 1999.73 1818.88 L 1999.73 1818.88 L 1978.55 1822.54 L 1978.55 1822.54 L 1962.02 1822.80 L 1962.02 1822.80 L 1943.22 1819.96 L 1943.22 1819.96 L 1933.29 1816.21 L 1933.29 1816.21 L 1912.44 1877.95 L 1912.44 1877.95 L 1908.95 1887.68 L 1908.95 1887.68 L 1905.40 1898.87 L 1905.40 1898.87 L 1907.01 1912.55 L 1907.01 1912.55 L 1906.51 1924.58 L 1906.51 1924.58 L 1901.24 1936.75 L 1901.24 1936.75 L 1896.42 1943.43 L 1896.42 1943.43 L 1890.71 1950.00 L 1890.71 1950.00" fill="none" stroke="#3cb44b" stroke-width="2" stroke-linejoin="round" stroke-linecap="round" />
</svg>